<svg width="42" height="41" viewBox="0 0 42 41" fill="none" xmlns="http://www.w3.org/2000/svg">
<g filter="url(#filter0_ddii_331_845)">
<path d="M32.05 27.5C33.48 27.5 34.65 26.33 34.65 24.9V10.6C34.65 9.17 33.48 8 32.05 8H18.4C18.79 8.78 19.05 9.69 19.05 10.6H32.05V24.9H20.35V27.5H32.05ZM25.55 14.5V17.1H17.75V34H15.15V26.2H12.55V34H9.95V23.6H8V17.1C8 15.67 9.17 14.5 10.6 14.5H25.55ZM16.45 10.6C16.45 12.03 15.28 13.2 13.85 13.2C12.42 13.2 11.25 12.03 11.25 10.6C11.25 9.17 12.42 8 13.85 8C15.28 8 16.45 9.17 16.45 10.6ZM28.15 13.2H30.75V23.6H28.15V13.2ZM24.25 18.4H26.85V23.6H24.25V18.4ZM20.35 18.4H22.95V23.6H20.35V18.4Z" fill="black"/>
</g>
<defs>
<filter id="filter0_ddii_331_845" x="0" y="0" width="41.65" height="41" filterUnits="userSpaceOnUse" color-interpolation-filters="sRGB">
<feFlood flood-opacity="0" result="BackgroundImageFix"/>
<feColorMatrix in="SourceAlpha" type="matrix" values="0 0 0 0 0 0 0 0 0 0 0 0 0 0 0 0 0 0 127 0" result="hardAlpha"/>
<feOffset dx="3" dy="3"/>
<feGaussianBlur stdDeviation="2"/>
<feComposite in2="hardAlpha" operator="out"/>
<feColorMatrix type="matrix" values="0 0 0 0 0 0 0 0 0 0 0 0 0 0 0 0 0 0 0.25 0"/>
<feBlend mode="normal" in2="BackgroundImageFix" result="effect1_dropShadow_331_845"/>
<feColorMatrix in="SourceAlpha" type="matrix" values="0 0 0 0 0 0 0 0 0 0 0 0 0 0 0 0 0 0 127 0" result="hardAlpha"/>
<feOffset dx="-3" dy="-3"/>
<feGaussianBlur stdDeviation="2.5"/>
<feComposite in2="hardAlpha" operator="out"/>
<feColorMatrix type="matrix" values="0 0 0 0 1 0 0 0 0 1 0 0 0 0 1 0 0 0 0.8 0"/>
<feBlend mode="normal" in2="effect1_dropShadow_331_845" result="effect2_dropShadow_331_845"/>
<feBlend mode="normal" in="SourceGraphic" in2="effect2_dropShadow_331_845" result="shape"/>
<feColorMatrix in="SourceAlpha" type="matrix" values="0 0 0 0 0 0 0 0 0 0 0 0 0 0 0 0 0 0 127 0" result="hardAlpha"/>
<feOffset dx="3" dy="3"/>
<feGaussianBlur stdDeviation="2"/>
<feComposite in2="hardAlpha" operator="arithmetic" k2="-1" k3="1"/>
<feColorMatrix type="matrix" values="0 0 0 0 1 0 0 0 0 1 0 0 0 0 1 0 0 0 0.25 0"/>
<feBlend mode="normal" in2="shape" result="effect3_innerShadow_331_845"/>
<feColorMatrix in="SourceAlpha" type="matrix" values="0 0 0 0 0 0 0 0 0 0 0 0 0 0 0 0 0 0 127 0" result="hardAlpha"/>
<feOffset dx="-3" dy="-3"/>
<feGaussianBlur stdDeviation="1.5"/>
<feComposite in2="hardAlpha" operator="arithmetic" k2="-1" k3="1"/>
<feColorMatrix type="matrix" values="0 0 0 0 0 0 0 0 0 0 0 0 0 0 0 0 0 0 0.2 0"/>
<feBlend mode="normal" in2="effect3_innerShadow_331_845" result="effect4_innerShadow_331_845"/>
</filter>
</defs>
</svg>
