<svg width="45" height="45" viewBox="0 0 45 45" fill="none" xmlns="http://www.w3.org/2000/svg">
<g filter="url(#filter0_ddii_351_223)">
<path d="M36.9744 29.9821V25.8446C36.9721 25.5131 36.8458 25.1944 36.6201 24.9514C36.3945 24.7084 36.0861 24.5588 35.7556 24.532C35.2451 24.491 34.7686 24.2597 34.4206 23.8839C34.0726 23.5081 33.8785 23.0153 33.8767 22.5032C33.8786 21.9912 34.0727 21.4985 34.4206 21.1229C34.7685 20.7472 35.2448 20.5159 35.7551 20.4747C36.0856 20.448 36.3941 20.2984 36.6197 20.0554C36.8453 19.8124 36.9717 19.4937 36.9739 19.1622L36.9744 15.0205C36.9741 14.6709 36.835 14.3356 36.5878 14.0884C36.3406 13.8412 36.0054 13.7021 35.6557 13.7018L29.0604 13.7013C28.6525 13.7021 28.2503 13.7972 27.8852 13.9793C27.8148 14.0141 27.7373 14.0322 27.6588 14.0322C27.5803 14.0322 27.5028 14.0141 27.4324 13.9793C27.0672 13.7971 26.6648 13.7021 26.2567 13.7018L9.34306 13.7018C8.99343 13.7021 8.65821 13.8412 8.41098 14.0884C8.16375 14.3356 8.02471 14.6709 8.02438 15.0205L8.02672 19.1603C8.02897 19.4919 8.15537 19.8105 8.38098 20.0535C8.6066 20.2965 8.91506 20.4461 9.24555 20.4729C9.75731 20.5114 10.2356 20.7418 10.5846 21.1181C10.9336 21.4943 11.1276 21.9886 11.1276 22.5018C11.1276 23.015 10.9336 23.5092 10.5846 23.8854C10.2356 24.2617 9.75731 24.4922 9.24555 24.5306C8.91506 24.5574 8.6066 24.707 8.38098 24.95C8.15537 25.193 8.02897 25.5117 8.02672 25.8432L8.02672 29.9807C8.02706 30.3303 8.1661 30.6655 8.41333 30.9128C8.66055 31.16 8.99577 31.299 9.3454 31.2994L26.259 31.2994C26.6669 31.299 27.0692 31.2042 27.4342 31.0223C27.5047 30.9873 27.5824 30.969 27.6611 30.969C27.7399 30.969 27.8175 30.9873 27.888 31.0223C28.2529 31.2043 28.655 31.2992 29.0628 31.2998L35.6581 31.2994C36.007 31.2984 36.3414 31.1593 36.5881 30.9124C36.8348 30.6656 36.9737 30.3311 36.9744 29.9821ZM27.6588 17.8866C27.5195 17.8866 27.3815 17.8592 27.2528 17.8059C27.1241 17.7526 27.0071 17.6744 26.9086 17.5759C26.8101 17.4774 26.732 17.3605 26.6787 17.2317C26.6254 17.103 26.5979 16.9651 26.5979 16.8258L26.5979 15.7466C26.6021 15.468 26.7157 15.2022 26.9142 15.0067C27.1127 14.8111 27.3801 14.7016 27.6588 14.7016C27.9374 14.7017 28.2048 14.8114 28.4033 15.007C28.6017 15.2026 28.7152 15.4685 28.7192 15.7471L28.7196 16.8258C28.7197 16.9651 28.6922 17.103 28.6389 17.2317C28.5856 17.3605 28.5075 17.4774 28.409 17.5759C28.3104 17.6744 28.1935 17.7526 28.0648 17.8059C27.9361 17.8592 27.7981 17.8866 27.6588 17.8866ZM27.6588 22.0119C27.3776 22.0118 27.1079 21.9 26.9091 21.7012C26.7102 21.5024 26.5985 21.2327 26.5984 20.9515V19.9202C26.5984 19.7809 26.6258 19.6429 26.6792 19.5142C26.7325 19.3855 26.8106 19.2686 26.9091 19.17C27.0076 19.0715 27.1246 18.9934 27.2533 18.9401C27.382 18.8868 27.5199 18.8593 27.6593 18.8593C27.9406 18.8593 28.2104 18.9711 28.4094 19.17C28.5079 19.2686 28.586 19.3855 28.6394 19.5142C28.6927 19.6429 28.7201 19.7809 28.7201 19.9202L28.7201 20.9515C28.7204 21.0911 28.6931 21.2293 28.6398 21.3583C28.5866 21.4873 28.5084 21.6045 28.4098 21.7032C28.3111 21.8019 28.194 21.8802 28.065 21.9336C27.9361 21.987 27.7979 22.0144 27.6583 22.0142L27.6588 22.0119ZM27.6588 26.1372C27.5195 26.1372 27.3815 26.1097 27.2528 26.0564C27.1241 26.0031 27.0071 25.925 26.9086 25.8265C26.8101 25.728 26.732 25.611 26.6787 25.4823C26.6253 25.3536 26.5979 25.2156 26.5979 25.0763V24.045C26.6021 23.7664 26.7157 23.5006 26.9142 23.305C27.1127 23.1095 27.3801 22.9999 27.6588 23C27.9374 23 28.2048 23.1097 28.4033 23.3054C28.6017 23.501 28.7152 23.7668 28.7192 24.0455V25.0768C28.7197 25.2164 28.6927 25.3548 28.6397 25.4839C28.5867 25.6131 28.5087 25.7305 28.4102 25.8295C28.3116 25.9285 28.1945 26.007 28.0656 26.0606C27.9367 26.1142 27.7984 26.1418 27.6588 26.1418L27.6588 26.1372ZM27.6536 30.3079C27.5143 30.3079 27.3764 30.2805 27.2476 30.2272C27.1189 30.1739 27.002 30.0957 26.9035 29.9972C26.8049 29.8987 26.7268 29.7817 26.6735 29.653C26.6202 29.5243 26.5928 29.3864 26.5928 29.247L26.5956 28.1717C26.5939 28.0311 26.6202 27.8916 26.6729 27.7613C26.7256 27.6309 26.8037 27.5124 26.9026 27.4125C27.0016 27.3126 27.1194 27.2334 27.2492 27.1794C27.379 27.1255 27.5182 27.0979 27.6588 27.0982C27.7994 27.0986 27.9385 27.1268 28.0681 27.1814C28.1976 27.236 28.315 27.3158 28.4135 27.4162C28.5119 27.5165 28.5894 27.6355 28.6415 27.766C28.6936 27.8966 28.7192 28.0363 28.7168 28.1768L28.715 29.2522C28.7149 29.3915 28.6874 29.5295 28.6341 29.6582C28.5807 29.7868 28.5025 29.9038 28.4039 30.0022C28.3054 30.1007 28.1884 30.1788 28.0597 30.232C27.9309 30.2853 27.793 30.3127 27.6536 30.3126L27.6536 30.3079Z" fill="black"/>
</g>
<g filter="url(#filter1_ddii_351_223)">
<path d="M36.9743 25.8445V29.982C36.9736 30.331 36.8347 30.6655 36.5881 30.9123C36.3414 31.1592 36.007 31.2983 35.658 31.2993L29.0627 31.2997C28.655 31.2991 28.2529 31.2042 27.8879 31.0222L28.0596 30.2319C28.1883 30.1787 28.3053 30.1006 28.4039 30.0021C28.5024 29.9037 28.5806 29.7867 28.634 29.658C28.6873 29.5294 28.7148 29.3914 28.7149 29.2521L28.7168 28.1767C28.7191 28.0361 28.6935 27.8965 28.6414 27.7659C28.5894 27.6354 28.5119 27.5164 28.4134 27.4161C28.315 27.3157 28.1976 27.2359 28.068 27.1813L28.0655 26.0605C28.1945 26.0069 28.3116 25.9284 28.4101 25.8294C28.5086 25.7304 28.5866 25.613 28.6396 25.4838C28.6927 25.3547 28.7197 25.2163 28.7191 25.0767V24.0453C28.7151 23.7667 28.6016 23.5009 28.4032 23.3053L28.065 21.9335C28.1939 21.8801 28.311 21.8018 28.4097 21.7031C28.5083 21.6044 28.5865 21.4872 28.6398 21.3582C28.693 21.2292 28.7203 21.091 28.72 20.9514L28.72 19.9201C28.72 19.7808 28.6926 19.6428 28.6393 19.5141C28.586 19.3854 28.5078 19.2685 28.4093 19.1699L28.0647 17.8058C28.1934 17.7525 28.3104 17.6743 28.4089 17.5758C28.5074 17.4773 28.5855 17.3604 28.6388 17.2316C28.6922 17.1029 28.7196 16.965 28.7196 16.8257L28.7191 15.747C28.7151 15.4684 28.6016 15.2025 28.4032 15.0069L27.8851 13.9792C28.2502 13.7971 28.6524 13.702 29.0604 13.7012L35.6556 13.7017C36.0053 13.702 36.3405 13.8411 36.5877 14.0883C36.8349 14.3355 36.974 14.6708 36.9743 15.0204L36.9739 19.1621C36.9716 19.4936 36.8452 19.8123 36.6196 20.0553C36.394 20.2983 36.0855 20.4479 35.755 20.4746C35.2447 20.5158 34.7684 20.7471 34.4205 21.1228C34.0726 21.4984 33.8785 21.9911 33.8766 22.5031C33.8784 23.0152 34.0725 23.508 34.4205 23.8838C34.7685 24.2596 35.245 24.4909 35.7555 24.5319C36.086 24.5587 36.3944 24.7083 36.6201 24.9513C36.8457 25.1943 36.9721 25.513 36.9743 25.8445Z" fill="#00ABFF"/>
</g>
<defs>
<filter id="filter0_ddii_351_223" x="0.024353" y="5.70133" width="43.9501" height="32.5985" filterUnits="userSpaceOnUse" color-interpolation-filters="sRGB">
<feFlood flood-opacity="0" result="BackgroundImageFix"/>
<feColorMatrix in="SourceAlpha" type="matrix" values="0 0 0 0 0 0 0 0 0 0 0 0 0 0 0 0 0 0 127 0" result="hardAlpha"/>
<feOffset dx="3" dy="3"/>
<feGaussianBlur stdDeviation="2"/>
<feComposite in2="hardAlpha" operator="out"/>
<feColorMatrix type="matrix" values="0 0 0 0 0 0 0 0 0 0 0 0 0 0 0 0 0 0 0.25 0"/>
<feBlend mode="normal" in2="BackgroundImageFix" result="effect1_dropShadow_351_223"/>
<feColorMatrix in="SourceAlpha" type="matrix" values="0 0 0 0 0 0 0 0 0 0 0 0 0 0 0 0 0 0 127 0" result="hardAlpha"/>
<feOffset dx="-3" dy="-3"/>
<feGaussianBlur stdDeviation="2.5"/>
<feComposite in2="hardAlpha" operator="out"/>
<feColorMatrix type="matrix" values="0 0 0 0 1 0 0 0 0 1 0 0 0 0 1 0 0 0 0.8 0"/>
<feBlend mode="normal" in2="effect1_dropShadow_351_223" result="effect2_dropShadow_351_223"/>
<feBlend mode="normal" in="SourceGraphic" in2="effect2_dropShadow_351_223" result="shape"/>
<feColorMatrix in="SourceAlpha" type="matrix" values="0 0 0 0 0 0 0 0 0 0 0 0 0 0 0 0 0 0 127 0" result="hardAlpha"/>
<feOffset dx="3" dy="3"/>
<feGaussianBlur stdDeviation="2"/>
<feComposite in2="hardAlpha" operator="arithmetic" k2="-1" k3="1"/>
<feColorMatrix type="matrix" values="0 0 0 0 1 0 0 0 0 1 0 0 0 0 1 0 0 0 0.25 0"/>
<feBlend mode="normal" in2="shape" result="effect3_innerShadow_351_223"/>
<feColorMatrix in="SourceAlpha" type="matrix" values="0 0 0 0 0 0 0 0 0 0 0 0 0 0 0 0 0 0 127 0" result="hardAlpha"/>
<feOffset dx="-3" dy="-3"/>
<feGaussianBlur stdDeviation="1.5"/>
<feComposite in2="hardAlpha" operator="arithmetic" k2="-1" k3="1"/>
<feColorMatrix type="matrix" values="0 0 0 0 0 0 0 0 0 0 0 0 0 0 0 0 0 0 0.2 0"/>
<feBlend mode="normal" in2="effect3_innerShadow_351_223" result="effect4_innerShadow_351_223"/>
</filter>
<filter id="filter1_ddii_351_223" x="19.8851" y="5.70123" width="24.0892" height="32.5985" filterUnits="userSpaceOnUse" color-interpolation-filters="sRGB">
<feFlood flood-opacity="0" result="BackgroundImageFix"/>
<feColorMatrix in="SourceAlpha" type="matrix" values="0 0 0 0 0 0 0 0 0 0 0 0 0 0 0 0 0 0 127 0" result="hardAlpha"/>
<feOffset dx="3" dy="3"/>
<feGaussianBlur stdDeviation="2"/>
<feComposite in2="hardAlpha" operator="out"/>
<feColorMatrix type="matrix" values="0 0 0 0 0 0 0 0 0 0 0 0 0 0 0 0 0 0 0.25 0"/>
<feBlend mode="normal" in2="BackgroundImageFix" result="effect1_dropShadow_351_223"/>
<feColorMatrix in="SourceAlpha" type="matrix" values="0 0 0 0 0 0 0 0 0 0 0 0 0 0 0 0 0 0 127 0" result="hardAlpha"/>
<feOffset dx="-3" dy="-3"/>
<feGaussianBlur stdDeviation="2.5"/>
<feComposite in2="hardAlpha" operator="out"/>
<feColorMatrix type="matrix" values="0 0 0 0 1 0 0 0 0 1 0 0 0 0 1 0 0 0 0.8 0"/>
<feBlend mode="normal" in2="effect1_dropShadow_351_223" result="effect2_dropShadow_351_223"/>
<feBlend mode="normal" in="SourceGraphic" in2="effect2_dropShadow_351_223" result="shape"/>
<feColorMatrix in="SourceAlpha" type="matrix" values="0 0 0 0 0 0 0 0 0 0 0 0 0 0 0 0 0 0 127 0" result="hardAlpha"/>
<feOffset dx="3" dy="3"/>
<feGaussianBlur stdDeviation="2"/>
<feComposite in2="hardAlpha" operator="arithmetic" k2="-1" k3="1"/>
<feColorMatrix type="matrix" values="0 0 0 0 1 0 0 0 0 1 0 0 0 0 1 0 0 0 0.25 0"/>
<feBlend mode="normal" in2="shape" result="effect3_innerShadow_351_223"/>
<feColorMatrix in="SourceAlpha" type="matrix" values="0 0 0 0 0 0 0 0 0 0 0 0 0 0 0 0 0 0 127 0" result="hardAlpha"/>
<feOffset dx="-3" dy="-3"/>
<feGaussianBlur stdDeviation="1.5"/>
<feComposite in2="hardAlpha" operator="arithmetic" k2="-1" k3="1"/>
<feColorMatrix type="matrix" values="0 0 0 0 0 0 0 0 0 0 0 0 0 0 0 0 0 0 0.2 0"/>
<feBlend mode="normal" in2="effect3_innerShadow_351_223" result="effect4_innerShadow_351_223"/>
</filter>
</defs>
</svg>
