<svg width="35" height="32" viewBox="0 0 35 32" fill="none" xmlns="http://www.w3.org/2000/svg">
<g filter="url(#filter0_dd_258_222)">
<path d="M25.9057 14.2389V20.6055C25.9057 21.1978 25.6704 21.7658 25.2516 22.1846C24.8328 22.6034 24.2648 22.8387 23.6725 22.8387H13.8462C13.2539 22.8387 12.6858 22.6034 12.267 22.1846C11.8482 21.7658 11.6129 21.1978 11.6129 20.6055V14.2389L18.5324 18.3106C18.6012 18.3511 18.6795 18.3725 18.7593 18.3725C18.8391 18.3725 18.9175 18.3511 18.9862 18.3106L25.9057 14.2389ZM23.6725 11.2258C24.222 11.2257 24.7522 11.4283 25.1618 11.7946C25.5713 12.161 25.8314 12.6655 25.8923 13.2116L18.7593 17.4075L11.6263 13.2116C11.6872 12.6655 11.9473 12.161 12.3569 11.7946C12.7664 11.4283 13.2967 11.2257 13.8462 11.2258H23.6725Z" fill="#00ABFF"/>
</g>
<defs>
<filter id="filter0_dd_258_222" x="0.612915" y="0.22583" width="34.2928" height="31.6129" filterUnits="userSpaceOnUse" color-interpolation-filters="sRGB">
<feFlood flood-opacity="0" result="BackgroundImageFix"/>
<feColorMatrix in="SourceAlpha" type="matrix" values="0 0 0 0 0 0 0 0 0 0 0 0 0 0 0 0 0 0 127 0" result="hardAlpha"/>
<feOffset dx="3" dy="3"/>
<feGaussianBlur stdDeviation="3"/>
<feComposite in2="hardAlpha" operator="out"/>
<feColorMatrix type="matrix" values="0 0 0 0 0 0 0 0 0 0 0 0 0 0 0 0 0 0 0.2 0"/>
<feBlend mode="normal" in2="BackgroundImageFix" result="effect1_dropShadow_258_222"/>
<feColorMatrix in="SourceAlpha" type="matrix" values="0 0 0 0 0 0 0 0 0 0 0 0 0 0 0 0 0 0 127 0" result="hardAlpha"/>
<feOffset dx="-4" dy="-4"/>
<feGaussianBlur stdDeviation="3.5"/>
<feComposite in2="hardAlpha" operator="out"/>
<feColorMatrix type="matrix" values="0 0 0 0 1 0 0 0 0 1 0 0 0 0 1 0 0 0 0.7 0"/>
<feBlend mode="normal" in2="effect1_dropShadow_258_222" result="effect2_dropShadow_258_222"/>
<feBlend mode="normal" in="SourceGraphic" in2="effect2_dropShadow_258_222" result="shape"/>
</filter>
</defs>
</svg>
