<svg width="42" height="41" viewBox="0 0 42 41" fill="none" xmlns="http://www.w3.org/2000/svg">
<g filter="url(#filter0_ddii_351_236)">
<path d="M25.2854 14.9263L21.6779 10.2957L24.2622 9.78406L27.8565 14.4147L25.2854 14.9263ZM34.2975 13.1423L33.2743 8L28.1189 9.02321L31.7132 13.667L34.2975 13.1423ZM11.3933 12.3552L10.1078 12.6044C9.42751 12.7432 8.82952 13.1448 8.44384 13.7221C8.05817 14.2994 7.91599 15.0056 8.04824 15.6872L8.55985 18.2583L14.9877 16.9859L11.3933 12.3552ZM21.4287 15.7003L17.8343 11.0434L15.2501 11.5812L18.8575 16.2119L21.4287 15.7003ZM8.55985 18.2583V31.3764C8.55985 32.0722 8.83626 32.7395 9.32828 33.2316C9.82031 33.7236 10.4876 34 11.1835 34H24.0523C23.3833 32.8456 22.9897 31.5076 22.9897 30.0646C22.9897 25.7225 26.5185 22.1937 30.8606 22.1937C32.3035 22.1937 33.6416 22.5873 34.796 23.2563V18.2583H8.55985ZM28.2369 34L34.796 30.0646L28.2369 26.1292V34Z" fill="black"/>
</g>
<g filter="url(#filter1_ddii_351_236)">
<path d="M25.2854 14.9263L21.6779 10.2957L24.2622 9.78406L27.8565 14.4147L25.2854 14.9263ZM34.2975 13.1423L33.2743 8L28.1189 9.02321L31.7132 13.667L34.2975 13.1423ZM11.3933 12.3552L10.1078 12.6044C9.42751 12.7432 8.82952 13.1448 8.44384 13.7221C8.05817 14.2994 7.91599 15.0056 8.04824 15.6872L8.55985 18.2583L14.9877 16.9859L11.3933 12.3552ZM21.4287 15.7003L17.8343 11.0434L15.2501 11.5812L18.8575 16.2119L21.4287 15.7003ZM28.2369 34L34.796 30.0646L28.2369 26.1292V34Z" fill="#00ABFF"/>
</g>
<defs>
<filter id="filter0_ddii_351_236" x="0" y="0" width="41.796" height="41" filterUnits="userSpaceOnUse" color-interpolation-filters="sRGB">
<feFlood flood-opacity="0" result="BackgroundImageFix"/>
<feColorMatrix in="SourceAlpha" type="matrix" values="0 0 0 0 0 0 0 0 0 0 0 0 0 0 0 0 0 0 127 0" result="hardAlpha"/>
<feOffset dx="3" dy="3"/>
<feGaussianBlur stdDeviation="2"/>
<feComposite in2="hardAlpha" operator="out"/>
<feColorMatrix type="matrix" values="0 0 0 0 0 0 0 0 0 0 0 0 0 0 0 0 0 0 0.25 0"/>
<feBlend mode="normal" in2="BackgroundImageFix" result="effect1_dropShadow_351_236"/>
<feColorMatrix in="SourceAlpha" type="matrix" values="0 0 0 0 0 0 0 0 0 0 0 0 0 0 0 0 0 0 127 0" result="hardAlpha"/>
<feOffset dx="-3" dy="-3"/>
<feGaussianBlur stdDeviation="2.5"/>
<feComposite in2="hardAlpha" operator="out"/>
<feColorMatrix type="matrix" values="0 0 0 0 1 0 0 0 0 1 0 0 0 0 1 0 0 0 0.8 0"/>
<feBlend mode="normal" in2="effect1_dropShadow_351_236" result="effect2_dropShadow_351_236"/>
<feBlend mode="normal" in="SourceGraphic" in2="effect2_dropShadow_351_236" result="shape"/>
<feColorMatrix in="SourceAlpha" type="matrix" values="0 0 0 0 0 0 0 0 0 0 0 0 0 0 0 0 0 0 127 0" result="hardAlpha"/>
<feOffset dx="3" dy="3"/>
<feGaussianBlur stdDeviation="2"/>
<feComposite in2="hardAlpha" operator="arithmetic" k2="-1" k3="1"/>
<feColorMatrix type="matrix" values="0 0 0 0 1 0 0 0 0 1 0 0 0 0 1 0 0 0 0.25 0"/>
<feBlend mode="normal" in2="shape" result="effect3_innerShadow_351_236"/>
<feColorMatrix in="SourceAlpha" type="matrix" values="0 0 0 0 0 0 0 0 0 0 0 0 0 0 0 0 0 0 127 0" result="hardAlpha"/>
<feOffset dx="-3" dy="-3"/>
<feGaussianBlur stdDeviation="1.5"/>
<feComposite in2="hardAlpha" operator="arithmetic" k2="-1" k3="1"/>
<feColorMatrix type="matrix" values="0 0 0 0 0 0 0 0 0 0 0 0 0 0 0 0 0 0 0.2 0"/>
<feBlend mode="normal" in2="effect3_innerShadow_351_236" result="effect4_innerShadow_351_236"/>
</filter>
<filter id="filter1_ddii_351_236" x="0" y="0" width="41.796" height="41" filterUnits="userSpaceOnUse" color-interpolation-filters="sRGB">
<feFlood flood-opacity="0" result="BackgroundImageFix"/>
<feColorMatrix in="SourceAlpha" type="matrix" values="0 0 0 0 0 0 0 0 0 0 0 0 0 0 0 0 0 0 127 0" result="hardAlpha"/>
<feOffset dx="3" dy="3"/>
<feGaussianBlur stdDeviation="2"/>
<feComposite in2="hardAlpha" operator="out"/>
<feColorMatrix type="matrix" values="0 0 0 0 0 0 0 0 0 0 0 0 0 0 0 0 0 0 0.25 0"/>
<feBlend mode="normal" in2="BackgroundImageFix" result="effect1_dropShadow_351_236"/>
<feColorMatrix in="SourceAlpha" type="matrix" values="0 0 0 0 0 0 0 0 0 0 0 0 0 0 0 0 0 0 127 0" result="hardAlpha"/>
<feOffset dx="-3" dy="-3"/>
<feGaussianBlur stdDeviation="2.5"/>
<feComposite in2="hardAlpha" operator="out"/>
<feColorMatrix type="matrix" values="0 0 0 0 1 0 0 0 0 1 0 0 0 0 1 0 0 0 0.8 0"/>
<feBlend mode="normal" in2="effect1_dropShadow_351_236" result="effect2_dropShadow_351_236"/>
<feBlend mode="normal" in="SourceGraphic" in2="effect2_dropShadow_351_236" result="shape"/>
<feColorMatrix in="SourceAlpha" type="matrix" values="0 0 0 0 0 0 0 0 0 0 0 0 0 0 0 0 0 0 127 0" result="hardAlpha"/>
<feOffset dx="3" dy="3"/>
<feGaussianBlur stdDeviation="2"/>
<feComposite in2="hardAlpha" operator="arithmetic" k2="-1" k3="1"/>
<feColorMatrix type="matrix" values="0 0 0 0 1 0 0 0 0 1 0 0 0 0 1 0 0 0 0.25 0"/>
<feBlend mode="normal" in2="shape" result="effect3_innerShadow_351_236"/>
<feColorMatrix in="SourceAlpha" type="matrix" values="0 0 0 0 0 0 0 0 0 0 0 0 0 0 0 0 0 0 127 0" result="hardAlpha"/>
<feOffset dx="-3" dy="-3"/>
<feGaussianBlur stdDeviation="1.5"/>
<feComposite in2="hardAlpha" operator="arithmetic" k2="-1" k3="1"/>
<feColorMatrix type="matrix" values="0 0 0 0 0 0 0 0 0 0 0 0 0 0 0 0 0 0 0.2 0"/>
<feBlend mode="normal" in2="effect3_innerShadow_351_236" result="effect4_innerShadow_351_236"/>
</filter>
</defs>
</svg>
