<svg width="49" height="45" viewBox="0 0 49 45" fill="none" xmlns="http://www.w3.org/2000/svg">
<g filter="url(#filter0_ddii_331_738)">
<path d="M23.6636 16.2083L26.7997 17.0217C26.9062 17.0463 27.0015 17.1047 27.0708 17.188C27.1401 17.2714 27.1795 17.3749 27.1828 17.4825C27.1828 17.7442 26.9465 17.9603 26.6558 17.9603H24.5986C24.3769 17.9597 24.1574 17.9172 23.952 17.8352C23.6492 17.71 23.3001 17.7385 23.0678 17.9489L21.9699 18.9444C21.9191 18.9882 21.8753 19.0392 21.8399 19.0957C21.7946 19.1689 21.7644 19.2502 21.7511 19.3349C21.7379 19.4197 21.7418 19.5061 21.7626 19.5894C21.7834 19.6726 21.8208 19.7509 21.8726 19.8199C21.9243 19.8888 21.9894 19.947 22.0641 19.9911C22.6721 20.3503 23.3529 20.5736 24.0583 20.6452V21.6521C24.0583 22.1527 24.5108 22.5622 25.0621 22.5622H26.0658C26.6177 22.5622 27.0701 22.1527 27.0701 21.6521V20.6509C28.9731 20.4461 30.4125 18.8875 30.1617 17.0673C29.9797 15.7589 28.8638 14.718 27.4712 14.3539L24.3351 13.5405C24.2286 13.5159 24.1333 13.4575 24.064 13.3742C23.9947 13.2908 23.9553 13.1873 23.952 13.0797C23.952 12.818 24.1883 12.6019 24.479 12.6019H26.5362C26.7587 12.6022 26.979 12.6447 27.1851 12.727C27.4874 12.8522 27.837 12.8237 28.0693 12.6133L29.1672 11.6178C29.2163 11.575 29.2586 11.5251 29.2926 11.4699C29.3383 11.3967 29.3689 11.3154 29.3825 11.2305C29.396 11.1457 29.3924 11.059 29.3718 10.9755C29.3511 10.8921 29.3139 10.8135 29.2622 10.7443C29.2106 10.675 29.1455 10.6166 29.0707 10.5723C28.4625 10.2131 27.7815 9.98976 27.0759 9.91812V8.91014C27.0759 8.40956 26.624 8 26.0722 8H25.0684C24.5166 8 24.0647 8.40956 24.0647 8.91014V9.91129C22.1641 10.1161 20.7217 11.6747 20.9725 13.495C21.154 14.8033 22.2733 15.8443 23.6636 16.2083ZM40.665 26.6635C39.9831 26.0549 38.9199 26.0947 38.2033 26.6635L32.8638 30.8672C32.2084 31.3848 31.3926 31.6659 30.5524 31.6636H23.7179C23.4727 31.6636 23.2376 31.5677 23.0642 31.397C22.8908 31.2263 22.7934 30.9948 22.7934 30.7535C22.7934 30.5121 22.8908 30.2806 23.0642 30.1099C23.2376 29.9392 23.4727 29.8433 23.7179 29.8433H28.2421C29.1609 29.8433 30.0167 29.2233 30.1635 28.3302C30.1816 28.2277 30.1904 28.1237 30.19 28.0196C30.1891 27.5375 29.9939 27.0753 29.6472 26.7347C29.3005 26.3941 28.8307 26.2028 28.3409 26.2028H19.095C17.5357 26.2032 16.0239 26.7312 14.813 27.6982L12.126 29.8433H8.92458C8.67937 29.8433 8.4442 29.9392 8.2708 30.1099C8.09741 30.2806 8 30.5121 8 30.7535V36.2143C8 36.4557 8.09741 36.6872 8.2708 36.8579C8.4442 37.0285 8.67937 37.1244 8.92458 37.1244H29.5411C30.3811 37.1251 31.1963 36.8442 31.8526 36.3281L40.5916 29.4451C40.8018 29.2796 40.9728 29.0709 41.0926 28.8336C41.2124 28.5963 41.2781 28.3361 41.2851 28.0712C41.2922 27.8064 41.2404 27.5431 41.1334 27.3C41.0264 27.0568 40.8667 26.8396 40.6656 26.6635H40.665Z" fill="#070707"/>
</g>
<g filter="url(#filter1_ddii_331_738)">
<path d="M23.6636 16.2083L26.7997 17.0217C26.9062 17.0463 27.0015 17.1047 27.0708 17.188C27.14 17.2714 27.1794 17.3749 27.1828 17.4825C27.1828 17.7442 26.9464 17.9603 26.6558 17.9603H24.5986C24.3769 17.9597 24.1574 17.9172 23.952 17.8352C23.6491 17.71 23.3001 17.7385 23.0678 17.9489L21.9699 18.9444C21.9191 18.9882 21.8753 19.0392 21.8399 19.0957C21.7945 19.1689 21.7644 19.2502 21.7511 19.3349C21.7378 19.4197 21.7417 19.5061 21.7626 19.5894C21.7834 19.6726 21.8208 19.7509 21.8725 19.8199C21.9243 19.8888 21.9894 19.947 22.0641 19.9911C22.6721 20.3503 23.3529 20.5736 24.0583 20.6452V21.6521C24.0583 22.1526 24.5107 22.5622 25.062 22.5622H26.0658C26.6176 22.5622 27.0701 22.1526 27.0701 21.6521V20.6509C28.973 20.4461 30.4125 18.8875 30.1617 17.0673C29.9797 15.7589 28.8638 14.718 27.4712 14.3539L24.3351 13.5405C24.2286 13.5159 24.1333 13.4575 24.064 13.3742C23.9947 13.2908 23.9553 13.1873 23.952 13.0797C23.952 12.818 24.1883 12.6019 24.479 12.6019H26.5362C26.7586 12.6022 26.979 12.6447 27.1851 12.727C27.4873 12.8522 27.8369 12.8237 28.0692 12.6133L29.1672 11.6178C29.2163 11.575 29.2586 11.5251 29.2926 11.4699C29.3383 11.3967 29.3688 11.3154 29.3824 11.2305C29.396 11.1457 29.3924 11.059 29.3718 10.9755C29.3511 10.8921 29.3139 10.8135 29.2622 10.7443C29.2105 10.675 29.1454 10.6166 29.0707 10.5723C28.4624 10.2131 27.7815 9.98976 27.0759 9.91812V8.91014C27.0759 8.40956 26.624 8 26.0721 8H25.0684C24.5165 8 24.0646 8.40956 24.0646 8.91014V9.91129C22.164 10.1161 20.7217 11.6747 20.9725 13.495C21.1539 14.8033 22.2733 15.8443 23.6636 16.2083Z" fill="#06A8FF"/>
</g>
<defs>
<filter id="filter0_ddii_331_738" x="0" y="0" width="48.2858" height="44.1244" filterUnits="userSpaceOnUse" color-interpolation-filters="sRGB">
<feFlood flood-opacity="0" result="BackgroundImageFix"/>
<feColorMatrix in="SourceAlpha" type="matrix" values="0 0 0 0 0 0 0 0 0 0 0 0 0 0 0 0 0 0 127 0" result="hardAlpha"/>
<feOffset dx="3" dy="3"/>
<feGaussianBlur stdDeviation="2"/>
<feComposite in2="hardAlpha" operator="out"/>
<feColorMatrix type="matrix" values="0 0 0 0 0 0 0 0 0 0 0 0 0 0 0 0 0 0 0.25 0"/>
<feBlend mode="normal" in2="BackgroundImageFix" result="effect1_dropShadow_331_738"/>
<feColorMatrix in="SourceAlpha" type="matrix" values="0 0 0 0 0 0 0 0 0 0 0 0 0 0 0 0 0 0 127 0" result="hardAlpha"/>
<feOffset dx="-3" dy="-3"/>
<feGaussianBlur stdDeviation="2.5"/>
<feComposite in2="hardAlpha" operator="out"/>
<feColorMatrix type="matrix" values="0 0 0 0 1 0 0 0 0 1 0 0 0 0 1 0 0 0 0.8 0"/>
<feBlend mode="normal" in2="effect1_dropShadow_331_738" result="effect2_dropShadow_331_738"/>
<feBlend mode="normal" in="SourceGraphic" in2="effect2_dropShadow_331_738" result="shape"/>
<feColorMatrix in="SourceAlpha" type="matrix" values="0 0 0 0 0 0 0 0 0 0 0 0 0 0 0 0 0 0 127 0" result="hardAlpha"/>
<feOffset dx="3" dy="3"/>
<feGaussianBlur stdDeviation="2"/>
<feComposite in2="hardAlpha" operator="arithmetic" k2="-1" k3="1"/>
<feColorMatrix type="matrix" values="0 0 0 0 1 0 0 0 0 1 0 0 0 0 1 0 0 0 0.25 0"/>
<feBlend mode="normal" in2="shape" result="effect3_innerShadow_331_738"/>
<feColorMatrix in="SourceAlpha" type="matrix" values="0 0 0 0 0 0 0 0 0 0 0 0 0 0 0 0 0 0 127 0" result="hardAlpha"/>
<feOffset dx="-3" dy="-3"/>
<feGaussianBlur stdDeviation="1.5"/>
<feComposite in2="hardAlpha" operator="arithmetic" k2="-1" k3="1"/>
<feColorMatrix type="matrix" values="0 0 0 0 0 0 0 0 0 0 0 0 0 0 0 0 0 0 0.2 0"/>
<feBlend mode="normal" in2="effect3_innerShadow_331_738" result="effect4_innerShadow_331_738"/>
</filter>
<filter id="filter1_ddii_331_738" x="12.9441" y="0" width="24.2461" height="29.5622" filterUnits="userSpaceOnUse" color-interpolation-filters="sRGB">
<feFlood flood-opacity="0" result="BackgroundImageFix"/>
<feColorMatrix in="SourceAlpha" type="matrix" values="0 0 0 0 0 0 0 0 0 0 0 0 0 0 0 0 0 0 127 0" result="hardAlpha"/>
<feOffset dx="3" dy="3"/>
<feGaussianBlur stdDeviation="2"/>
<feComposite in2="hardAlpha" operator="out"/>
<feColorMatrix type="matrix" values="0 0 0 0 0 0 0 0 0 0 0 0 0 0 0 0 0 0 0.25 0"/>
<feBlend mode="normal" in2="BackgroundImageFix" result="effect1_dropShadow_331_738"/>
<feColorMatrix in="SourceAlpha" type="matrix" values="0 0 0 0 0 0 0 0 0 0 0 0 0 0 0 0 0 0 127 0" result="hardAlpha"/>
<feOffset dx="-3" dy="-3"/>
<feGaussianBlur stdDeviation="2.5"/>
<feComposite in2="hardAlpha" operator="out"/>
<feColorMatrix type="matrix" values="0 0 0 0 1 0 0 0 0 1 0 0 0 0 1 0 0 0 0.8 0"/>
<feBlend mode="normal" in2="effect1_dropShadow_331_738" result="effect2_dropShadow_331_738"/>
<feBlend mode="normal" in="SourceGraphic" in2="effect2_dropShadow_331_738" result="shape"/>
<feColorMatrix in="SourceAlpha" type="matrix" values="0 0 0 0 0 0 0 0 0 0 0 0 0 0 0 0 0 0 127 0" result="hardAlpha"/>
<feOffset dx="3" dy="3"/>
<feGaussianBlur stdDeviation="2"/>
<feComposite in2="hardAlpha" operator="arithmetic" k2="-1" k3="1"/>
<feColorMatrix type="matrix" values="0 0 0 0 1 0 0 0 0 1 0 0 0 0 1 0 0 0 0.25 0"/>
<feBlend mode="normal" in2="shape" result="effect3_innerShadow_331_738"/>
<feColorMatrix in="SourceAlpha" type="matrix" values="0 0 0 0 0 0 0 0 0 0 0 0 0 0 0 0 0 0 127 0" result="hardAlpha"/>
<feOffset dx="-3" dy="-3"/>
<feGaussianBlur stdDeviation="1.5"/>
<feComposite in2="hardAlpha" operator="arithmetic" k2="-1" k3="1"/>
<feColorMatrix type="matrix" values="0 0 0 0 0 0 0 0 0 0 0 0 0 0 0 0 0 0 0.2 0"/>
<feBlend mode="normal" in2="effect3_innerShadow_331_738" result="effect4_innerShadow_331_738"/>
</filter>
</defs>
</svg>
