<svg width="63" height="48" viewBox="0 0 63 48" fill="none" xmlns="http://www.w3.org/2000/svg">
<g filter="url(#filter0_ddii_518_133)">
<path d="M54.3965 21.4956C54.089 21.1647 51.8821 18.4684 50.6925 17.0153C50.0597 16.2428 49.56 15.6325 49.35 15.3794L49.3331 15.3588L49.3144 15.3391C48.825 14.7925 48.1294 14.1663 47.085 14.1663C46.9152 14.1684 46.7458 14.1822 46.5778 14.2075C46.5432 14.2122 46.5075 14.2178 46.47 14.2216C46.2403 14.2469 45.5269 14.3622 43.832 14.6416C42.5195 14.8562 40.5404 15.1825 40.2404 15.2106L40.1739 15.2162L40.1092 15.2284C39.1717 15.3953 38.5511 15.8116 38.2755 16.465C38.1302 16.81 37.9736 17.5103 38.5511 18.3269C38.6945 18.535 39.1914 19.2231 40.0454 20.4053C40.6136 21.1928 41.252 22.0759 41.8032 22.8428L31.3653 25.2812L21.1242 8.50469L21.1054 8.47281L21.0838 8.44187L21.0426 8.38094C20.6235 7.76594 20.1023 7 18.5967 7C18.4908 7 18.3801 7 18.2564 7.01031C17.8251 7.03375 16.2483 7.1575 14.423 7.30188C12.4084 7.46031 9.65121 7.67687 9.29309 7.68625H9.22465L9.15059 7.69375C8.29373 7.77719 7.67217 8.125 7.30374 8.725C6.68969 9.72719 7.17062 10.8522 7.32812 11.2216C7.64405 11.9688 10.5212 18.0344 13.059 23.3884C14.7464 26.9453 16.4883 30.6231 16.6308 30.9494C16.8814 31.5588 17.3104 32.0782 17.8615 32.4395C18.4126 32.8007 19.0601 32.9868 19.7189 32.9734C20.0298 32.972 20.3397 32.9375 20.6432 32.8703H20.6629L20.6817 32.8656C21.981 32.5487 26.1032 31.5025 29.044 30.7478C29.2222 31.0591 29.4097 31.3881 29.6065 31.7266C31.6624 35.3359 33.1596 37.9469 33.6527 38.6134C33.9058 38.9688 34.6558 40 36.0677 40C36.5796 40 37.0483 39.8687 37.5433 39.7291L37.6867 39.6888H37.698C38.6852 39.4075 51.825 34.7987 52.4981 34.4997L52.5187 34.4903C53.0287 34.2644 53.7993 33.9231 54.0355 33.0466C54.1902 32.4728 54.0524 31.8906 53.6249 31.3159L53.6184 31.3075L53.6118 31.2991C53.5321 31.1959 53.2368 30.8106 52.8365 30.2772C51.9806 29.1456 50.5978 27.3175 49.3828 25.7266C51.0112 25.3047 53.0203 24.7788 53.4496 24.6438C54.5249 24.3222 54.8502 23.6416 54.9496 23.2628C55.0237 22.9675 55.1202 22.2128 54.3965 21.4956ZM24.3969 26.9509C22.7273 27.3419 21.5638 27.6147 20.8448 27.7853C20.2195 26.5347 18.9942 24.0681 17.798 21.6606C15.0099 16.0431 13.5699 13.1509 12.8124 11.6387L13.5765 11.5731C14.8271 11.4653 16.5399 11.3181 17.4933 11.2384C19.0645 13.8878 24.4607 22.9853 26.5213 26.4541L24.3969 26.9509ZM41.0992 33.1984C38.8295 33.9484 37.5995 34.3581 36.9349 34.5803C36.3442 33.6109 35.0449 31.4378 33.8908 29.5L44.7376 26.7362C45.2063 27.3747 46.1035 28.585 47.8744 30.9484C46.1804 31.5147 43.3557 32.4503 41.0992 33.1984ZM46.3369 21.7956L44.1094 18.8397C45.391 18.6156 46.1288 18.4862 46.561 18.4084L47.686 19.8034L48.8053 21.1928C48.0366 21.3794 47.1422 21.5978 46.3369 21.7956Z" fill="#FF2D20"/>
</g>
<defs>
<filter id="filter0_ddii_518_133" x="0" y="0" width="63" height="48" filterUnits="userSpaceOnUse" color-interpolation-filters="sRGB">
<feFlood flood-opacity="0" result="BackgroundImageFix"/>
<feColorMatrix in="SourceAlpha" type="matrix" values="0 0 0 0 0 0 0 0 0 0 0 0 0 0 0 0 0 0 127 0" result="hardAlpha"/>
<feOffset dx="3" dy="3"/>
<feGaussianBlur stdDeviation="2.5"/>
<feComposite in2="hardAlpha" operator="out"/>
<feColorMatrix type="matrix" values="0 0 0 0 0 0 0 0 0 0 0 0 0 0 0 0 0 0 0.25 0"/>
<feBlend mode="normal" in2="BackgroundImageFix" result="effect1_dropShadow_518_133"/>
<feColorMatrix in="SourceAlpha" type="matrix" values="0 0 0 0 0 0 0 0 0 0 0 0 0 0 0 0 0 0 127 0" result="hardAlpha"/>
<feOffset dx="-3" dy="-3"/>
<feGaussianBlur stdDeviation="2"/>
<feComposite in2="hardAlpha" operator="out"/>
<feColorMatrix type="matrix" values="0 0 0 0 1 0 0 0 0 1 0 0 0 0 1 0 0 0 0.9 0"/>
<feBlend mode="normal" in2="effect1_dropShadow_518_133" result="effect2_dropShadow_518_133"/>
<feBlend mode="normal" in="SourceGraphic" in2="effect2_dropShadow_518_133" result="shape"/>
<feColorMatrix in="SourceAlpha" type="matrix" values="0 0 0 0 0 0 0 0 0 0 0 0 0 0 0 0 0 0 127 0" result="hardAlpha"/>
<feOffset dx="3" dy="3"/>
<feGaussianBlur stdDeviation="1.5"/>
<feComposite in2="hardAlpha" operator="arithmetic" k2="-1" k3="1"/>
<feColorMatrix type="matrix" values="0 0 0 0 1 0 0 0 0 1 0 0 0 0 1 0 0 0 0.2 0"/>
<feBlend mode="normal" in2="shape" result="effect3_innerShadow_518_133"/>
<feColorMatrix in="SourceAlpha" type="matrix" values="0 0 0 0 0 0 0 0 0 0 0 0 0 0 0 0 0 0 127 0" result="hardAlpha"/>
<feOffset dx="-3" dy="-3"/>
<feGaussianBlur stdDeviation="1.5"/>
<feComposite in2="hardAlpha" operator="arithmetic" k2="-1" k3="1"/>
<feColorMatrix type="matrix" values="0 0 0 0 0 0 0 0 0 0 0 0 0 0 0 0 0 0 0.2 0"/>
<feBlend mode="normal" in2="effect3_innerShadow_518_133" result="effect4_innerShadow_518_133"/>
</filter>
</defs>
</svg>
