<svg width="55" height="55" viewBox="0 0 55 55" fill="none" xmlns="http://www.w3.org/2000/svg">
<g filter="url(#filter0_ddii_518_100)">
<path d="M7.00008 26.9967V26.9684C7.00008 24.0295 7.64175 21.2391 8.79341 18.7337L8.74341 18.857L18.2884 44.9946C14.9562 43.3852 12.1364 40.8818 10.1434 37.7635L10.0951 37.6834C8.06439 34.5503 6.98902 30.8939 7.00008 27.1601V26.9884V26.9967ZM40.4983 25.9815C40.4983 26.3349 40.4733 26.6833 40.4283 27.0234L40.4333 26.9834C40.3657 27.4454 40.2705 27.9029 40.1483 28.3536L40.1666 28.2719C40.0366 28.792 39.9372 29.1732 39.8683 29.4154C39.7994 29.6577 39.6494 30.1694 39.4183 30.9507C39.1849 31.7308 39.0333 32.2337 38.9633 32.4593L36.9866 39.117L29.7566 17.6318C30.5566 17.5796 31.32 17.5101 32.0466 17.4235C32.1927 17.4169 32.3339 17.3684 32.4532 17.2839C32.5726 17.1994 32.6652 17.0823 32.72 16.9467L32.7216 16.9417C32.7821 16.8138 32.8078 16.6721 32.7961 16.531C32.7844 16.39 32.7357 16.2545 32.655 16.1383L32.6566 16.1416C32.5781 16.0188 32.4665 15.9207 32.3347 15.8585C32.203 15.7963 32.0563 15.7725 31.9116 15.7899H31.915L26.5817 16.0566C25.2817 16.0388 23.5306 15.9499 21.3284 15.7899C21.1395 15.7679 20.9492 15.8159 20.7934 15.9249L20.7967 15.9232C20.6589 16.0163 20.5549 16.1513 20.5 16.3083L20.4984 16.3133C20.4444 16.4696 20.4313 16.6372 20.46 16.8V16.7934C20.4869 16.9585 20.5692 17.1096 20.6934 17.2218C20.8326 17.3475 21.011 17.4211 21.1984 17.4301H21.2L23.28 17.6385L26.4017 26.1732L22.0317 39.2837L14.75 17.6285C15.55 17.5763 16.3134 17.5068 17.04 17.4201C17.1861 17.4135 17.3273 17.3651 17.4466 17.2806C17.566 17.1961 17.6586 17.079 17.7134 16.9434L17.715 16.9384C17.7755 16.8104 17.8012 16.6688 17.7895 16.5277C17.7778 16.3866 17.7291 16.2512 17.6484 16.1349L17.65 16.1383C17.5715 16.0155 17.4599 15.9174 17.3281 15.8552C17.1964 15.793 17.0497 15.7692 16.905 15.7865H16.9084L11.5751 16.0532C11.4528 16.0532 11.2534 16.0488 10.9767 16.0399C10.7001 16.031 10.4745 16.0266 10.3001 16.0266C12.0813 13.3079 14.4961 11.0627 17.3367 9.48383L17.4384 9.43216C20.3677 7.82652 23.6563 6.98977 26.9967 7.00009C29.6216 7.00009 32.13 7.50684 34.4266 8.42533L34.2916 8.37699C36.5842 9.28219 38.6913 10.6003 40.5083 12.266L40.4933 12.2526H40.1666C39.2383 12.2526 38.4066 12.6594 37.8366 13.3028L37.8333 13.3061C37.2433 13.9396 36.8816 14.793 36.8816 15.7299V15.7799V15.7765C36.8816 15.9966 36.8999 16.2133 36.9366 16.4233L36.9333 16.4C36.9677 16.6078 37.0022 16.7939 37.0366 16.9584C37.0916 17.1868 37.1633 17.3868 37.2533 17.5752L37.2449 17.5568C37.3494 17.7902 37.4277 17.9724 37.4799 18.1036C37.5816 18.3319 37.6866 18.5236 37.8033 18.707L37.7916 18.6887C37.9483 18.9487 38.0566 19.131 38.1166 19.2354C38.1766 19.3399 38.3022 19.5477 38.4933 19.8589L38.8566 20.4573C39.8483 22.0242 40.4533 23.9229 40.4933 25.9599V25.9715L40.4983 25.9815ZM27.3383 28.7403L33.5016 45.5697C33.5216 45.6797 33.5683 45.7781 33.635 45.8581V45.8564C31.5076 46.6176 29.2644 47.0045 27.005 47H26.9583C25.0138 47.0021 23.0801 46.7093 21.2234 46.1315L21.36 46.1682L27.3383 28.7403ZM44.5299 17.4051C46.16 20.3275 47.0107 23.6203 46.9999 26.9667V27.0084V27.0067V27.1517C46.9999 30.7973 45.9949 34.2079 44.2449 37.1217L44.2932 37.0333C42.5589 40.0029 40.0934 42.4791 37.1316 44.2262L37.0383 44.2779L43.1499 26.6316C43.9999 24.5163 44.5516 22.0676 44.6816 19.5071L44.6832 19.4521V19.3938C44.6837 18.7003 44.628 18.0079 44.5166 17.3234L44.5266 17.3968L44.5299 17.4051Z" fill="#00749A"/>
</g>
<defs>
<filter id="filter0_ddii_518_100" x="0" y="0" width="55" height="55" filterUnits="userSpaceOnUse" color-interpolation-filters="sRGB">
<feFlood flood-opacity="0" result="BackgroundImageFix"/>
<feColorMatrix in="SourceAlpha" type="matrix" values="0 0 0 0 0 0 0 0 0 0 0 0 0 0 0 0 0 0 127 0" result="hardAlpha"/>
<feOffset dx="3" dy="3"/>
<feGaussianBlur stdDeviation="2.5"/>
<feComposite in2="hardAlpha" operator="out"/>
<feColorMatrix type="matrix" values="0 0 0 0 0 0 0 0 0 0 0 0 0 0 0 0 0 0 0.25 0"/>
<feBlend mode="normal" in2="BackgroundImageFix" result="effect1_dropShadow_518_100"/>
<feColorMatrix in="SourceAlpha" type="matrix" values="0 0 0 0 0 0 0 0 0 0 0 0 0 0 0 0 0 0 127 0" result="hardAlpha"/>
<feOffset dx="-3" dy="-3"/>
<feGaussianBlur stdDeviation="2"/>
<feComposite in2="hardAlpha" operator="out"/>
<feColorMatrix type="matrix" values="0 0 0 0 1 0 0 0 0 1 0 0 0 0 1 0 0 0 0.9 0"/>
<feBlend mode="normal" in2="effect1_dropShadow_518_100" result="effect2_dropShadow_518_100"/>
<feBlend mode="normal" in="SourceGraphic" in2="effect2_dropShadow_518_100" result="shape"/>
<feColorMatrix in="SourceAlpha" type="matrix" values="0 0 0 0 0 0 0 0 0 0 0 0 0 0 0 0 0 0 127 0" result="hardAlpha"/>
<feOffset dx="3" dy="3"/>
<feGaussianBlur stdDeviation="1.5"/>
<feComposite in2="hardAlpha" operator="arithmetic" k2="-1" k3="1"/>
<feColorMatrix type="matrix" values="0 0 0 0 1 0 0 0 0 1 0 0 0 0 1 0 0 0 0.2 0"/>
<feBlend mode="normal" in2="shape" result="effect3_innerShadow_518_100"/>
<feColorMatrix in="SourceAlpha" type="matrix" values="0 0 0 0 0 0 0 0 0 0 0 0 0 0 0 0 0 0 127 0" result="hardAlpha"/>
<feOffset dx="-3" dy="-3"/>
<feGaussianBlur stdDeviation="1.5"/>
<feComposite in2="hardAlpha" operator="arithmetic" k2="-1" k3="1"/>
<feColorMatrix type="matrix" values="0 0 0 0 0 0 0 0 0 0 0 0 0 0 0 0 0 0 0.2 0"/>
<feBlend mode="normal" in2="effect3_innerShadow_518_100" result="effect4_innerShadow_518_100"/>
</filter>
</defs>
</svg>
