<svg width="70" height="44" viewBox="0 0 70 44" fill="none" xmlns="http://www.w3.org/2000/svg">
<g filter="url(#filter0_ddii_518_103)">
<path d="M23.0686 17.3805H20.9013L19.7205 23.4641H21.6455C22.9156 23.4641 23.8644 23.2229 24.4917 22.7388C25.1087 22.2632 25.5298 21.4552 25.7447 20.3336C25.9578 19.2568 25.8598 18.4935 25.468 18.0456C25.0641 17.6062 24.2666 17.3822 23.0686 17.3822V17.3805ZM34.5 7C19.308 7 7 13.4971 7 21.5C7 29.5029 19.308 36 34.5 36C49.692 36 62 29.5029 62 21.5C62 13.4971 49.692 7 34.5 7ZM27.0252 24.1205C26.4302 24.6938 25.7141 25.1254 24.93 25.3834C24.16 25.6264 23.1769 25.7608 21.9858 25.7608H19.2719L18.5294 29.6201H15.3686L18.1891 15.0925H24.258C26.085 15.0925 27.4188 15.568 28.2592 16.5277C29.0928 17.4873 29.3523 18.8347 29.0103 20.5576C28.8823 21.2399 28.6474 21.8975 28.3142 22.5062C27.9714 23.109 27.5358 23.6539 27.0234 24.1205H27.0252ZM36.2548 25.7608L37.4992 19.3291C37.6419 18.6003 37.5886 18.1007 37.3359 17.8285C37.0953 17.5683 36.5659 17.4339 35.7616 17.4339H33.2642L31.6537 25.7608H28.5119L31.3306 11.2246H34.4639L33.7128 15.0925H36.5058C38.2709 15.0925 39.4775 15.3975 40.1409 16.0074C40.813 16.6276 41.0089 17.6217 40.7511 18.9966L39.4328 25.7625L36.2548 25.7608ZM53.6555 20.5576C53.5314 21.2409 53.2962 21.8992 52.9594 22.5062C52.6198 23.1084 52.1876 23.6532 51.6789 24.1205C51.0785 24.691 50.3603 25.1222 49.5752 25.3834C48.8052 25.6264 47.8203 25.7608 46.6309 25.7608H43.9273L43.1763 29.6201H40.0155L42.8359 15.0925H48.9048C50.7319 15.0925 52.0656 15.568 52.9061 16.538C53.7397 17.4891 53.9992 18.8347 53.6572 20.5576H53.6555ZM47.7137 17.3805H45.555L44.3742 23.4641H46.2906C47.5694 23.4641 48.5181 23.2229 49.1369 22.7388C49.7625 22.2632 50.1836 21.4552 50.4002 20.3336C50.6133 19.2568 50.5153 18.4935 50.1114 18.0456C49.7195 17.6062 48.9134 17.3822 47.7137 17.3822V17.3805Z" fill="#537BC1"/>
</g>
<defs>
<filter id="filter0_ddii_518_103" x="0" y="0" width="70" height="44" filterUnits="userSpaceOnUse" color-interpolation-filters="sRGB">
<feFlood flood-opacity="0" result="BackgroundImageFix"/>
<feColorMatrix in="SourceAlpha" type="matrix" values="0 0 0 0 0 0 0 0 0 0 0 0 0 0 0 0 0 0 127 0" result="hardAlpha"/>
<feOffset dx="3" dy="3"/>
<feGaussianBlur stdDeviation="2.5"/>
<feComposite in2="hardAlpha" operator="out"/>
<feColorMatrix type="matrix" values="0 0 0 0 0 0 0 0 0 0 0 0 0 0 0 0 0 0 0.25 0"/>
<feBlend mode="normal" in2="BackgroundImageFix" result="effect1_dropShadow_518_103"/>
<feColorMatrix in="SourceAlpha" type="matrix" values="0 0 0 0 0 0 0 0 0 0 0 0 0 0 0 0 0 0 127 0" result="hardAlpha"/>
<feOffset dx="-3" dy="-3"/>
<feGaussianBlur stdDeviation="2"/>
<feComposite in2="hardAlpha" operator="out"/>
<feColorMatrix type="matrix" values="0 0 0 0 1 0 0 0 0 1 0 0 0 0 1 0 0 0 0.9 0"/>
<feBlend mode="normal" in2="effect1_dropShadow_518_103" result="effect2_dropShadow_518_103"/>
<feBlend mode="normal" in="SourceGraphic" in2="effect2_dropShadow_518_103" result="shape"/>
<feColorMatrix in="SourceAlpha" type="matrix" values="0 0 0 0 0 0 0 0 0 0 0 0 0 0 0 0 0 0 127 0" result="hardAlpha"/>
<feOffset dx="3" dy="3"/>
<feGaussianBlur stdDeviation="1.5"/>
<feComposite in2="hardAlpha" operator="arithmetic" k2="-1" k3="1"/>
<feColorMatrix type="matrix" values="0 0 0 0 1 0 0 0 0 1 0 0 0 0 1 0 0 0 0.2 0"/>
<feBlend mode="normal" in2="shape" result="effect3_innerShadow_518_103"/>
<feColorMatrix in="SourceAlpha" type="matrix" values="0 0 0 0 0 0 0 0 0 0 0 0 0 0 0 0 0 0 127 0" result="hardAlpha"/>
<feOffset dx="-3" dy="-3"/>
<feGaussianBlur stdDeviation="1.5"/>
<feComposite in2="hardAlpha" operator="arithmetic" k2="-1" k3="1"/>
<feColorMatrix type="matrix" values="0 0 0 0 0 0 0 0 0 0 0 0 0 0 0 0 0 0 0.2 0"/>
<feBlend mode="normal" in2="effect3_innerShadow_518_103" result="effect4_innerShadow_518_103"/>
</filter>
</defs>
</svg>
