<svg width="44" height="41" viewBox="0 0 44 41" fill="none" xmlns="http://www.w3.org/2000/svg">
<g filter="url(#filter0_ddii_351_231)">
<path d="M27.7825 12.8103C29.1108 12.8103 30.1877 11.7335 30.1877 10.4052C30.1877 9.07683 29.1108 8 27.7825 8C26.4542 8 25.3773 9.07683 25.3773 10.4052C25.3773 11.7335 26.4542 12.8103 27.7825 12.8103Z" fill="#00ABFF"/>
</g>
<g filter="url(#filter1_ddii_351_231)">
<path d="M36.802 21.8298V16.1776L30.729 13.6041C29.5625 13.111 28.2156 13.5319 27.5421 14.6143L26.3396 16.5384C25.5338 17.9575 24.0426 19.0157 22.2387 19.3284L22.3109 19.4006C23.1407 20.2303 24.1388 20.6873 25.2693 20.8076C26.2313 20.3025 27.0972 19.629 27.7827 18.8353L28.5042 22.4431L27.1092 23.7659L25.9788 24.8362V33.8556H28.384V26.6401L30.9094 24.235L33.074 33.8556H35.5995L32.9778 20.6272L32.2322 16.8992L34.3969 17.741V21.8298H36.802ZM20.3146 17.272C20.5792 17.4524 20.8798 17.5606 21.1805 17.6207C21.3368 17.6448 21.4811 17.6688 21.6374 17.6688C21.7938 17.6688 21.9501 17.6568 22.0944 17.6207C22.2508 17.5967 22.3951 17.5486 22.5394 17.4884C22.828 17.3682 23.1046 17.1998 23.3331 16.9593C23.9224 16.37 24.1388 15.5523 23.9945 14.7947C23.9103 14.3497 23.6939 13.9047 23.3331 13.556C23.1046 13.3275 22.828 13.1471 22.5394 13.0269C22.3951 12.9667 22.2508 12.9186 22.0944 12.8946C21.9381 12.8705 21.7938 12.8465 21.6374 12.8465C21.4931 12.8465 21.3609 12.8585 21.2165 12.8825C21.0482 12.9066 20.8798 12.9547 20.7235 13.0148C20.4469 13.1471 20.1703 13.3275 19.9418 13.556C19.581 13.9047 19.3646 14.3497 19.2804 14.7947C19.1361 15.5523 19.3525 16.37 19.9418 16.9593C20.05 17.0796 20.1823 17.1758 20.3146 17.272Z" fill="#00ABFF"/>
</g>
<g filter="url(#filter2_ddii_351_231)">
<path d="M20.3146 17.272C20.5792 17.4524 20.8798 17.5606 21.1805 17.6207C21.3368 17.6448 21.4811 17.6688 21.6374 17.6688C21.7938 17.6688 21.9501 17.6568 22.0944 17.6207C22.2508 17.5967 22.3951 17.5486 22.5394 17.4884C22.828 17.3682 23.1046 17.1998 23.3331 16.9593C23.9224 16.37 24.1388 15.5523 23.9945 14.7947C23.9103 14.3497 23.6939 13.9047 23.3331 13.556C23.1046 13.3275 22.828 13.1471 22.5394 13.0269C22.3951 12.9667 22.2508 12.9186 22.0944 12.8946C21.9381 12.8705 21.7938 12.8465 21.6374 12.8465C21.4931 12.8465 21.3609 12.8585 21.2165 12.8825C21.0482 12.9066 20.8798 12.9547 20.7235 13.0148C20.4469 13.1471 20.1703 13.3275 19.9418 13.556C19.581 13.9047 19.3646 14.3497 19.2804 14.7947C19.1361 15.5523 19.3525 16.37 19.9418 16.9593C20.05 17.0796 20.1823 17.1758 20.3146 17.272Z" fill="#00ABFF"/>
</g>
<g filter="url(#filter3_ddii_351_231)">
<path d="M21.4569 20.2424L19.0518 17.8372C18.9315 17.717 18.8112 17.6208 18.679 17.5246C18.416 17.3551 18.1215 17.2406 17.8131 17.1878C17.6568 17.1518 17.5125 17.1397 17.3561 17.1397C16.7428 17.1397 16.1295 17.3803 15.6605 17.8493L11.6438 21.8659C11.1508 22.359 10.8982 23.0444 10.9463 23.7179C10.9463 23.9343 10.9944 24.1628 11.0786 24.3793L12.3654 27.9269L8 32.2923L9.69565 34L14.7946 28.901V26.2313L16.358 27.6864V33.8557H18.7631V26.6402L16.2137 24.0907L19.0518 21.2526L19.9056 22.1064C21.4569 23.6217 23.4773 24.5597 25.9546 24.5597L25.7862 22.0703C23.9824 22.0463 22.5393 21.3247 21.4569 20.2424Z" fill="black"/>
</g>
<defs>
<filter id="filter0_ddii_351_231" x="17.3773" y="0" width="19.8103" height="19.8103" filterUnits="userSpaceOnUse" color-interpolation-filters="sRGB">
<feFlood flood-opacity="0" result="BackgroundImageFix"/>
<feColorMatrix in="SourceAlpha" type="matrix" values="0 0 0 0 0 0 0 0 0 0 0 0 0 0 0 0 0 0 127 0" result="hardAlpha"/>
<feOffset dx="3" dy="3"/>
<feGaussianBlur stdDeviation="2"/>
<feComposite in2="hardAlpha" operator="out"/>
<feColorMatrix type="matrix" values="0 0 0 0 0 0 0 0 0 0 0 0 0 0 0 0 0 0 0.25 0"/>
<feBlend mode="normal" in2="BackgroundImageFix" result="effect1_dropShadow_351_231"/>
<feColorMatrix in="SourceAlpha" type="matrix" values="0 0 0 0 0 0 0 0 0 0 0 0 0 0 0 0 0 0 127 0" result="hardAlpha"/>
<feOffset dx="-3" dy="-3"/>
<feGaussianBlur stdDeviation="2.5"/>
<feComposite in2="hardAlpha" operator="out"/>
<feColorMatrix type="matrix" values="0 0 0 0 1 0 0 0 0 1 0 0 0 0 1 0 0 0 0.8 0"/>
<feBlend mode="normal" in2="effect1_dropShadow_351_231" result="effect2_dropShadow_351_231"/>
<feBlend mode="normal" in="SourceGraphic" in2="effect2_dropShadow_351_231" result="shape"/>
<feColorMatrix in="SourceAlpha" type="matrix" values="0 0 0 0 0 0 0 0 0 0 0 0 0 0 0 0 0 0 127 0" result="hardAlpha"/>
<feOffset dx="3" dy="3"/>
<feGaussianBlur stdDeviation="2"/>
<feComposite in2="hardAlpha" operator="arithmetic" k2="-1" k3="1"/>
<feColorMatrix type="matrix" values="0 0 0 0 1 0 0 0 0 1 0 0 0 0 1 0 0 0 0.25 0"/>
<feBlend mode="normal" in2="shape" result="effect3_innerShadow_351_231"/>
<feColorMatrix in="SourceAlpha" type="matrix" values="0 0 0 0 0 0 0 0 0 0 0 0 0 0 0 0 0 0 127 0" result="hardAlpha"/>
<feOffset dx="-3" dy="-3"/>
<feGaussianBlur stdDeviation="1.5"/>
<feComposite in2="hardAlpha" operator="arithmetic" k2="-1" k3="1"/>
<feColorMatrix type="matrix" values="0 0 0 0 0 0 0 0 0 0 0 0 0 0 0 0 0 0 0.2 0"/>
<feBlend mode="normal" in2="effect3_innerShadow_351_231" result="effect4_innerShadow_351_231"/>
</filter>
<filter id="filter1_ddii_351_231" x="11.2372" y="4.84647" width="32.5648" height="36.0092" filterUnits="userSpaceOnUse" color-interpolation-filters="sRGB">
<feFlood flood-opacity="0" result="BackgroundImageFix"/>
<feColorMatrix in="SourceAlpha" type="matrix" values="0 0 0 0 0 0 0 0 0 0 0 0 0 0 0 0 0 0 127 0" result="hardAlpha"/>
<feOffset dx="3" dy="3"/>
<feGaussianBlur stdDeviation="2"/>
<feComposite in2="hardAlpha" operator="out"/>
<feColorMatrix type="matrix" values="0 0 0 0 0 0 0 0 0 0 0 0 0 0 0 0 0 0 0.25 0"/>
<feBlend mode="normal" in2="BackgroundImageFix" result="effect1_dropShadow_351_231"/>
<feColorMatrix in="SourceAlpha" type="matrix" values="0 0 0 0 0 0 0 0 0 0 0 0 0 0 0 0 0 0 127 0" result="hardAlpha"/>
<feOffset dx="-3" dy="-3"/>
<feGaussianBlur stdDeviation="2.5"/>
<feComposite in2="hardAlpha" operator="out"/>
<feColorMatrix type="matrix" values="0 0 0 0 1 0 0 0 0 1 0 0 0 0 1 0 0 0 0.8 0"/>
<feBlend mode="normal" in2="effect1_dropShadow_351_231" result="effect2_dropShadow_351_231"/>
<feBlend mode="normal" in="SourceGraphic" in2="effect2_dropShadow_351_231" result="shape"/>
<feColorMatrix in="SourceAlpha" type="matrix" values="0 0 0 0 0 0 0 0 0 0 0 0 0 0 0 0 0 0 127 0" result="hardAlpha"/>
<feOffset dx="3" dy="3"/>
<feGaussianBlur stdDeviation="2"/>
<feComposite in2="hardAlpha" operator="arithmetic" k2="-1" k3="1"/>
<feColorMatrix type="matrix" values="0 0 0 0 1 0 0 0 0 1 0 0 0 0 1 0 0 0 0.25 0"/>
<feBlend mode="normal" in2="shape" result="effect3_innerShadow_351_231"/>
<feColorMatrix in="SourceAlpha" type="matrix" values="0 0 0 0 0 0 0 0 0 0 0 0 0 0 0 0 0 0 127 0" result="hardAlpha"/>
<feOffset dx="-3" dy="-3"/>
<feGaussianBlur stdDeviation="1.5"/>
<feComposite in2="hardAlpha" operator="arithmetic" k2="-1" k3="1"/>
<feColorMatrix type="matrix" values="0 0 0 0 0 0 0 0 0 0 0 0 0 0 0 0 0 0 0.2 0"/>
<feBlend mode="normal" in2="effect3_innerShadow_351_231" result="effect4_innerShadow_351_231"/>
</filter>
<filter id="filter2_ddii_351_231" x="11.2372" y="4.84647" width="19.8005" height="19.8224" filterUnits="userSpaceOnUse" color-interpolation-filters="sRGB">
<feFlood flood-opacity="0" result="BackgroundImageFix"/>
<feColorMatrix in="SourceAlpha" type="matrix" values="0 0 0 0 0 0 0 0 0 0 0 0 0 0 0 0 0 0 127 0" result="hardAlpha"/>
<feOffset dx="3" dy="3"/>
<feGaussianBlur stdDeviation="2"/>
<feComposite in2="hardAlpha" operator="out"/>
<feColorMatrix type="matrix" values="0 0 0 0 0 0 0 0 0 0 0 0 0 0 0 0 0 0 0.25 0"/>
<feBlend mode="normal" in2="BackgroundImageFix" result="effect1_dropShadow_351_231"/>
<feColorMatrix in="SourceAlpha" type="matrix" values="0 0 0 0 0 0 0 0 0 0 0 0 0 0 0 0 0 0 127 0" result="hardAlpha"/>
<feOffset dx="-3" dy="-3"/>
<feGaussianBlur stdDeviation="2.5"/>
<feComposite in2="hardAlpha" operator="out"/>
<feColorMatrix type="matrix" values="0 0 0 0 1 0 0 0 0 1 0 0 0 0 1 0 0 0 0.8 0"/>
<feBlend mode="normal" in2="effect1_dropShadow_351_231" result="effect2_dropShadow_351_231"/>
<feBlend mode="normal" in="SourceGraphic" in2="effect2_dropShadow_351_231" result="shape"/>
<feColorMatrix in="SourceAlpha" type="matrix" values="0 0 0 0 0 0 0 0 0 0 0 0 0 0 0 0 0 0 127 0" result="hardAlpha"/>
<feOffset dx="3" dy="3"/>
<feGaussianBlur stdDeviation="2"/>
<feComposite in2="hardAlpha" operator="arithmetic" k2="-1" k3="1"/>
<feColorMatrix type="matrix" values="0 0 0 0 1 0 0 0 0 1 0 0 0 0 1 0 0 0 0.25 0"/>
<feBlend mode="normal" in2="shape" result="effect3_innerShadow_351_231"/>
<feColorMatrix in="SourceAlpha" type="matrix" values="0 0 0 0 0 0 0 0 0 0 0 0 0 0 0 0 0 0 127 0" result="hardAlpha"/>
<feOffset dx="-3" dy="-3"/>
<feGaussianBlur stdDeviation="1.5"/>
<feComposite in2="hardAlpha" operator="arithmetic" k2="-1" k3="1"/>
<feColorMatrix type="matrix" values="0 0 0 0 0 0 0 0 0 0 0 0 0 0 0 0 0 0 0.2 0"/>
<feBlend mode="normal" in2="effect3_innerShadow_351_231" result="effect4_innerShadow_351_231"/>
</filter>
<filter id="filter3_ddii_351_231" x="0" y="9.13974" width="32.9546" height="31.8603" filterUnits="userSpaceOnUse" color-interpolation-filters="sRGB">
<feFlood flood-opacity="0" result="BackgroundImageFix"/>
<feColorMatrix in="SourceAlpha" type="matrix" values="0 0 0 0 0 0 0 0 0 0 0 0 0 0 0 0 0 0 127 0" result="hardAlpha"/>
<feOffset dx="3" dy="3"/>
<feGaussianBlur stdDeviation="2"/>
<feComposite in2="hardAlpha" operator="out"/>
<feColorMatrix type="matrix" values="0 0 0 0 0 0 0 0 0 0 0 0 0 0 0 0 0 0 0.25 0"/>
<feBlend mode="normal" in2="BackgroundImageFix" result="effect1_dropShadow_351_231"/>
<feColorMatrix in="SourceAlpha" type="matrix" values="0 0 0 0 0 0 0 0 0 0 0 0 0 0 0 0 0 0 127 0" result="hardAlpha"/>
<feOffset dx="-3" dy="-3"/>
<feGaussianBlur stdDeviation="2.5"/>
<feComposite in2="hardAlpha" operator="out"/>
<feColorMatrix type="matrix" values="0 0 0 0 1 0 0 0 0 1 0 0 0 0 1 0 0 0 0.8 0"/>
<feBlend mode="normal" in2="effect1_dropShadow_351_231" result="effect2_dropShadow_351_231"/>
<feBlend mode="normal" in="SourceGraphic" in2="effect2_dropShadow_351_231" result="shape"/>
<feColorMatrix in="SourceAlpha" type="matrix" values="0 0 0 0 0 0 0 0 0 0 0 0 0 0 0 0 0 0 127 0" result="hardAlpha"/>
<feOffset dx="3" dy="3"/>
<feGaussianBlur stdDeviation="2"/>
<feComposite in2="hardAlpha" operator="arithmetic" k2="-1" k3="1"/>
<feColorMatrix type="matrix" values="0 0 0 0 1 0 0 0 0 1 0 0 0 0 1 0 0 0 0.25 0"/>
<feBlend mode="normal" in2="shape" result="effect3_innerShadow_351_231"/>
<feColorMatrix in="SourceAlpha" type="matrix" values="0 0 0 0 0 0 0 0 0 0 0 0 0 0 0 0 0 0 127 0" result="hardAlpha"/>
<feOffset dx="-3" dy="-3"/>
<feGaussianBlur stdDeviation="1.5"/>
<feComposite in2="hardAlpha" operator="arithmetic" k2="-1" k3="1"/>
<feColorMatrix type="matrix" values="0 0 0 0 0 0 0 0 0 0 0 0 0 0 0 0 0 0 0.2 0"/>
<feBlend mode="normal" in2="effect3_innerShadow_351_231" result="effect4_innerShadow_351_231"/>
</filter>
</defs>
</svg>
