<svg width="70" height="53" viewBox="0 0 70 53" fill="none" xmlns="http://www.w3.org/2000/svg">
<g filter="url(#filter0_ddii_303_211)">
<path d="M61.032 23.6919C60.6814 23.3109 58.1656 20.2061 56.8094 18.5328C56.088 17.6432 55.5184 16.9405 55.279 16.649L55.2598 16.6252L55.2384 16.6026C54.6805 15.9732 53.8875 15.252 52.6969 15.252C52.5033 15.2546 52.3102 15.2704 52.1187 15.2995C52.0792 15.3049 52.0386 15.3114 51.9958 15.3157C51.734 15.3449 50.9207 15.4777 48.9884 15.7994C47.4922 16.0466 45.2361 16.4223 44.8941 16.4547L44.8182 16.4611L44.7445 16.4752C43.6757 16.6673 42.9682 17.1466 42.654 17.8991C42.4884 18.2964 42.3099 19.1028 42.9682 20.0431C43.1318 20.2827 43.6982 21.0751 44.6718 22.4364C45.3195 23.3432 46.0473 24.3602 46.6757 25.2432L34.7764 28.0511L23.1015 8.73267L23.0802 8.69597L23.0556 8.66034L23.0086 8.59017C22.5308 7.88199 21.9366 7 20.2202 7C20.0995 7 19.9734 7 19.8323 7.01188C19.3407 7.03886 17.5431 7.18136 15.4622 7.34761C13.1655 7.53006 10.0224 7.77943 9.61412 7.79023H9.5361L9.45167 7.79886C8.47485 7.89494 7.76628 8.29545 7.34627 8.98636C6.64625 10.1404 7.19451 11.4359 7.37405 11.8612C7.73422 12.7216 11.0142 19.7063 13.9072 25.8715C15.8309 29.9673 17.8167 34.2024 17.9791 34.5781C18.2648 35.2799 18.7538 35.878 19.3821 36.2939C20.0104 36.7099 20.7485 36.9242 21.4995 36.9088C21.8539 36.9072 22.2072 36.8674 22.5533 36.7901H22.5757L22.5971 36.7847C24.0784 36.4198 28.7776 35.215 32.1302 34.346C32.3333 34.7044 32.547 35.0833 32.7714 35.473C35.1152 39.6293 36.8219 42.6358 37.3841 43.4034C37.6727 43.8125 38.5276 45 40.1372 45C40.7207 45 41.2551 44.8489 41.8194 44.688L41.9829 44.6416H41.9957C43.1211 44.3177 58.1004 39.0107 58.8678 38.6663L58.8913 38.6555C59.4727 38.3953 60.3512 38.0024 60.6205 36.993C60.7969 36.3323 60.6398 35.6619 60.1524 35.0002L60.1449 34.9905L60.1375 34.9807C60.0466 34.862 59.71 34.4183 59.2536 33.804C58.2779 32.501 56.7015 30.3959 55.3164 28.5639C57.1728 28.0781 59.4631 27.4725 59.9526 27.317C61.1784 26.9468 61.5492 26.163 61.6625 25.7269C61.747 25.3868 61.857 24.5178 61.032 23.6919ZM26.8325 29.9738C24.9291 30.424 23.6028 30.7381 22.7831 30.9346C22.0702 29.4945 20.6734 26.6542 19.3097 23.8819C16.1313 17.4133 14.4897 14.0829 13.6261 12.3416L14.4972 12.266C15.9229 12.1419 17.8754 11.9724 18.9623 11.8806C20.7535 14.9314 26.9052 25.4073 29.2542 29.4016L26.8325 29.9738ZM45.8731 37.1679C43.2857 38.0315 41.8835 38.5033 41.1257 38.7591C40.4524 37.6429 38.9712 35.1405 37.6556 32.9091L50.0208 29.7266C50.5552 30.4618 51.578 31.8555 53.5968 34.577C51.6656 35.229 48.4455 36.3064 45.8731 37.1679ZM51.8441 24.0374L49.3048 20.6336C50.7657 20.3756 51.6068 20.2266 52.0995 20.137L53.382 21.7434L54.6581 23.3432C53.7817 23.5581 52.7621 23.8096 51.8441 24.0374Z" fill="#FF2D20"/>
</g>
<defs>
<filter id="filter0_ddii_303_211" x="0" y="0" width="69.72" height="53" filterUnits="userSpaceOnUse" color-interpolation-filters="sRGB">
<feFlood flood-opacity="0" result="BackgroundImageFix"/>
<feColorMatrix in="SourceAlpha" type="matrix" values="0 0 0 0 0 0 0 0 0 0 0 0 0 0 0 0 0 0 127 0" result="hardAlpha"/>
<feOffset dx="3" dy="3"/>
<feGaussianBlur stdDeviation="2.5"/>
<feComposite in2="hardAlpha" operator="out"/>
<feColorMatrix type="matrix" values="0 0 0 0 0 0 0 0 0 0 0 0 0 0 0 0 0 0 0.25 0"/>
<feBlend mode="normal" in2="BackgroundImageFix" result="effect1_dropShadow_303_211"/>
<feColorMatrix in="SourceAlpha" type="matrix" values="0 0 0 0 0 0 0 0 0 0 0 0 0 0 0 0 0 0 127 0" result="hardAlpha"/>
<feOffset dx="-3" dy="-3"/>
<feGaussianBlur stdDeviation="2"/>
<feComposite in2="hardAlpha" operator="out"/>
<feColorMatrix type="matrix" values="0 0 0 0 1 0 0 0 0 1 0 0 0 0 1 0 0 0 0.9 0"/>
<feBlend mode="normal" in2="effect1_dropShadow_303_211" result="effect2_dropShadow_303_211"/>
<feBlend mode="normal" in="SourceGraphic" in2="effect2_dropShadow_303_211" result="shape"/>
<feColorMatrix in="SourceAlpha" type="matrix" values="0 0 0 0 0 0 0 0 0 0 0 0 0 0 0 0 0 0 127 0" result="hardAlpha"/>
<feOffset dx="3" dy="3"/>
<feGaussianBlur stdDeviation="1.5"/>
<feComposite in2="hardAlpha" operator="arithmetic" k2="-1" k3="1"/>
<feColorMatrix type="matrix" values="0 0 0 0 1 0 0 0 0 1 0 0 0 0 1 0 0 0 0.2 0"/>
<feBlend mode="normal" in2="shape" result="effect3_innerShadow_303_211"/>
<feColorMatrix in="SourceAlpha" type="matrix" values="0 0 0 0 0 0 0 0 0 0 0 0 0 0 0 0 0 0 127 0" result="hardAlpha"/>
<feOffset dx="-3" dy="-3"/>
<feGaussianBlur stdDeviation="1.5"/>
<feComposite in2="hardAlpha" operator="arithmetic" k2="-1" k3="1"/>
<feColorMatrix type="matrix" values="0 0 0 0 0 0 0 0 0 0 0 0 0 0 0 0 0 0 0.2 0"/>
<feBlend mode="normal" in2="effect3_innerShadow_303_211" result="effect4_innerShadow_303_211"/>
</filter>
</defs>
</svg>
