<svg width="64" height="53" viewBox="0 0 64 53" fill="none" xmlns="http://www.w3.org/2000/svg">
<g filter="url(#filter0_ddii_303_262)">
<path fill-rule="evenodd" clip-rule="evenodd" d="M7 29.8025C7 33.9977 17.7943 37.4028 31.1116 37.4028V45C17.7943 45 7 41.598 7 37.4028V29.8025ZM55.2308 29.8025V37.4013C55.2308 39.1924 53.2582 40.8356 49.974 42.1355L31.1101 37.4013V29.8025L49.974 34.5352C53.2584 33.2369 55.2323 31.5937 55.2308 29.8025ZM31.1116 7C44.4305 7 55.2308 10.4081 55.2308 14.6003V22.2053C55.2308 23.9902 53.2582 25.6397 49.9755 26.9332L31.1116 22.2053V29.8025C17.7943 29.8025 7 26.399 7 22.2051V14.6003C7 10.4081 17.7943 7 31.1116 7Z" fill="#D33C44"/>
</g>
<defs>
<filter id="filter0_ddii_303_262" x="0" y="0" width="63.2308" height="53" filterUnits="userSpaceOnUse" color-interpolation-filters="sRGB">
<feFlood flood-opacity="0" result="BackgroundImageFix"/>
<feColorMatrix in="SourceAlpha" type="matrix" values="0 0 0 0 0 0 0 0 0 0 0 0 0 0 0 0 0 0 127 0" result="hardAlpha"/>
<feOffset dx="3" dy="3"/>
<feGaussianBlur stdDeviation="2.5"/>
<feComposite in2="hardAlpha" operator="out"/>
<feColorMatrix type="matrix" values="0 0 0 0 0 0 0 0 0 0 0 0 0 0 0 0 0 0 0.25 0"/>
<feBlend mode="normal" in2="BackgroundImageFix" result="effect1_dropShadow_303_262"/>
<feColorMatrix in="SourceAlpha" type="matrix" values="0 0 0 0 0 0 0 0 0 0 0 0 0 0 0 0 0 0 127 0" result="hardAlpha"/>
<feOffset dx="-3" dy="-3"/>
<feGaussianBlur stdDeviation="2"/>
<feComposite in2="hardAlpha" operator="out"/>
<feColorMatrix type="matrix" values="0 0 0 0 1 0 0 0 0 1 0 0 0 0 1 0 0 0 0.9 0"/>
<feBlend mode="normal" in2="effect1_dropShadow_303_262" result="effect2_dropShadow_303_262"/>
<feBlend mode="normal" in="SourceGraphic" in2="effect2_dropShadow_303_262" result="shape"/>
<feColorMatrix in="SourceAlpha" type="matrix" values="0 0 0 0 0 0 0 0 0 0 0 0 0 0 0 0 0 0 127 0" result="hardAlpha"/>
<feOffset dx="3" dy="3"/>
<feGaussianBlur stdDeviation="1.5"/>
<feComposite in2="hardAlpha" operator="arithmetic" k2="-1" k3="1"/>
<feColorMatrix type="matrix" values="0 0 0 0 1 0 0 0 0 1 0 0 0 0 1 0 0 0 0.2 0"/>
<feBlend mode="normal" in2="shape" result="effect3_innerShadow_303_262"/>
<feColorMatrix in="SourceAlpha" type="matrix" values="0 0 0 0 0 0 0 0 0 0 0 0 0 0 0 0 0 0 127 0" result="hardAlpha"/>
<feOffset dx="-3" dy="-3"/>
<feGaussianBlur stdDeviation="1.5"/>
<feComposite in2="hardAlpha" operator="arithmetic" k2="-1" k3="1"/>
<feColorMatrix type="matrix" values="0 0 0 0 0 0 0 0 0 0 0 0 0 0 0 0 0 0 0.2 0"/>
<feBlend mode="normal" in2="effect3_innerShadow_303_262" result="effect4_innerShadow_303_262"/>
</filter>
</defs>
</svg>
