<svg width="50" height="39" viewBox="0 0 50 39" fill="none" xmlns="http://www.w3.org/2000/svg">
<g filter="url(#filter0_ddii_351_221)">
<path d="M34.87 32.0001C37.3433 32.0001 39.3483 29.995 39.3483 27.5217C39.3483 25.0484 37.3433 23.0434 34.87 23.0434C32.3967 23.0434 30.3917 25.0484 30.3917 27.5217C30.3917 29.995 32.3967 32.0001 34.87 32.0001Z" fill="#00ABFF"/>
<path d="M15.1654 32C17.6387 32 19.6437 29.995 19.6437 27.5217C19.6437 25.0484 17.6387 23.0433 15.1654 23.0433C12.6921 23.0433 10.6871 25.0484 10.6871 27.5217C10.6871 29.995 12.6921 32 15.1654 32Z" fill="#00ABFF"/>
</g>
<g filter="url(#filter1_ddii_351_221)">
<path d="M8 16.9567V10.9856C8 9.3435 9.6122 8 11.5827 8H24.122C25.1968 8 26.2716 8.44783 26.9881 9.19422L33.0786 15.4639" fill="black"/>
<path d="M39.5274 16.6924L33.0786 14.5812H9.79133C8.71653 14.5812 8 15.1442 8 15.9887V23.0261C8 23.8705 8.71653 24.4335 9.79133 24.4335H10.687C10.687 22.4631 12.6575 20.9148 15.1653 20.9148C17.6732 20.9148 19.6436 22.4631 19.6436 24.4335H30.3916C30.3916 22.4631 32.3621 20.9148 34.87 20.9148C37.3778 20.9148 39.3483 22.4631 39.3483 24.4335H40.244C41.3188 24.4335 42.0353 23.8705 42.0353 23.0261V19.3666C42.0353 18.2406 40.9605 17.1147 39.5274 16.6924Z" fill="black"/>
</g>
<g filter="url(#filter2_ddii_351_221)">
<path d="M25.0177 30.2086C26.5017 30.2086 27.7047 29.0056 27.7047 27.5216C27.7047 26.0376 26.5017 24.8346 25.0177 24.8346C23.5338 24.8346 22.3307 26.0376 22.3307 27.5216C22.3307 29.0056 23.5338 30.2086 25.0177 30.2086Z" fill="#00ABFF"/>
<path d="M34.8698 29.3132C35.8591 29.3132 36.6611 28.5112 36.6611 27.5219C36.6611 26.5325 35.8591 25.7305 34.8698 25.7305C33.8804 25.7305 33.0784 26.5325 33.0784 27.5219C33.0784 28.5112 33.8804 29.3132 34.8698 29.3132Z" fill="#00ABFF"/>
<path d="M15.1652 29.3132C16.1546 29.3132 16.9566 28.5112 16.9566 27.5219C16.9566 26.5325 16.1546 25.7305 15.1652 25.7305C14.1759 25.7305 13.3739 26.5325 13.3739 27.5219C13.3739 28.5112 14.1759 29.3132 15.1652 29.3132Z" fill="#00ABFF"/>
<path d="M30.7499 29.3132C30.4812 28.7758 30.3916 28.1488 30.3916 27.5219C30.3916 26.8949 30.5707 26.2679 30.7499 25.7305H19.2853C19.554 26.2679 19.6436 26.8949 19.6436 27.5219C19.6436 28.1488 19.4645 28.7758 19.2853 29.3132H30.7499Z" fill="#00ABFF"/>
</g>
<defs>
<filter id="filter0_ddii_351_221" x="2.68707" y="15.0433" width="43.6613" height="23.9567" filterUnits="userSpaceOnUse" color-interpolation-filters="sRGB">
<feFlood flood-opacity="0" result="BackgroundImageFix"/>
<feColorMatrix in="SourceAlpha" type="matrix" values="0 0 0 0 0 0 0 0 0 0 0 0 0 0 0 0 0 0 127 0" result="hardAlpha"/>
<feOffset dx="3" dy="3"/>
<feGaussianBlur stdDeviation="2"/>
<feComposite in2="hardAlpha" operator="out"/>
<feColorMatrix type="matrix" values="0 0 0 0 0 0 0 0 0 0 0 0 0 0 0 0 0 0 0.25 0"/>
<feBlend mode="normal" in2="BackgroundImageFix" result="effect1_dropShadow_351_221"/>
<feColorMatrix in="SourceAlpha" type="matrix" values="0 0 0 0 0 0 0 0 0 0 0 0 0 0 0 0 0 0 127 0" result="hardAlpha"/>
<feOffset dx="-3" dy="-3"/>
<feGaussianBlur stdDeviation="2.5"/>
<feComposite in2="hardAlpha" operator="out"/>
<feColorMatrix type="matrix" values="0 0 0 0 1 0 0 0 0 1 0 0 0 0 1 0 0 0 0.8 0"/>
<feBlend mode="normal" in2="effect1_dropShadow_351_221" result="effect2_dropShadow_351_221"/>
<feBlend mode="normal" in="SourceGraphic" in2="effect2_dropShadow_351_221" result="shape"/>
<feColorMatrix in="SourceAlpha" type="matrix" values="0 0 0 0 0 0 0 0 0 0 0 0 0 0 0 0 0 0 127 0" result="hardAlpha"/>
<feOffset dx="3" dy="3"/>
<feGaussianBlur stdDeviation="2"/>
<feComposite in2="hardAlpha" operator="arithmetic" k2="-1" k3="1"/>
<feColorMatrix type="matrix" values="0 0 0 0 1 0 0 0 0 1 0 0 0 0 1 0 0 0 0.25 0"/>
<feBlend mode="normal" in2="shape" result="effect3_innerShadow_351_221"/>
<feColorMatrix in="SourceAlpha" type="matrix" values="0 0 0 0 0 0 0 0 0 0 0 0 0 0 0 0 0 0 127 0" result="hardAlpha"/>
<feOffset dx="-3" dy="-3"/>
<feGaussianBlur stdDeviation="1.5"/>
<feComposite in2="hardAlpha" operator="arithmetic" k2="-1" k3="1"/>
<feColorMatrix type="matrix" values="0 0 0 0 0 0 0 0 0 0 0 0 0 0 0 0 0 0 0.2 0"/>
<feBlend mode="normal" in2="effect3_innerShadow_351_221" result="effect4_innerShadow_351_221"/>
</filter>
<filter id="filter1_ddii_351_221" x="0" y="0" width="49.0353" height="31.4335" filterUnits="userSpaceOnUse" color-interpolation-filters="sRGB">
<feFlood flood-opacity="0" result="BackgroundImageFix"/>
<feColorMatrix in="SourceAlpha" type="matrix" values="0 0 0 0 0 0 0 0 0 0 0 0 0 0 0 0 0 0 127 0" result="hardAlpha"/>
<feOffset dx="3" dy="3"/>
<feGaussianBlur stdDeviation="2"/>
<feComposite in2="hardAlpha" operator="out"/>
<feColorMatrix type="matrix" values="0 0 0 0 0 0 0 0 0 0 0 0 0 0 0 0 0 0 0.25 0"/>
<feBlend mode="normal" in2="BackgroundImageFix" result="effect1_dropShadow_351_221"/>
<feColorMatrix in="SourceAlpha" type="matrix" values="0 0 0 0 0 0 0 0 0 0 0 0 0 0 0 0 0 0 127 0" result="hardAlpha"/>
<feOffset dx="-3" dy="-3"/>
<feGaussianBlur stdDeviation="2.5"/>
<feComposite in2="hardAlpha" operator="out"/>
<feColorMatrix type="matrix" values="0 0 0 0 1 0 0 0 0 1 0 0 0 0 1 0 0 0 0.8 0"/>
<feBlend mode="normal" in2="effect1_dropShadow_351_221" result="effect2_dropShadow_351_221"/>
<feBlend mode="normal" in="SourceGraphic" in2="effect2_dropShadow_351_221" result="shape"/>
<feColorMatrix in="SourceAlpha" type="matrix" values="0 0 0 0 0 0 0 0 0 0 0 0 0 0 0 0 0 0 127 0" result="hardAlpha"/>
<feOffset dx="3" dy="3"/>
<feGaussianBlur stdDeviation="2"/>
<feComposite in2="hardAlpha" operator="arithmetic" k2="-1" k3="1"/>
<feColorMatrix type="matrix" values="0 0 0 0 1 0 0 0 0 1 0 0 0 0 1 0 0 0 0.25 0"/>
<feBlend mode="normal" in2="shape" result="effect3_innerShadow_351_221"/>
<feColorMatrix in="SourceAlpha" type="matrix" values="0 0 0 0 0 0 0 0 0 0 0 0 0 0 0 0 0 0 127 0" result="hardAlpha"/>
<feOffset dx="-3" dy="-3"/>
<feGaussianBlur stdDeviation="1.5"/>
<feComposite in2="hardAlpha" operator="arithmetic" k2="-1" k3="1"/>
<feColorMatrix type="matrix" values="0 0 0 0 0 0 0 0 0 0 0 0 0 0 0 0 0 0 0.2 0"/>
<feBlend mode="normal" in2="effect3_innerShadow_351_221" result="effect4_innerShadow_351_221"/>
</filter>
<filter id="filter2_ddii_351_221" x="5.3739" y="16.8346" width="38.2872" height="20.374" filterUnits="userSpaceOnUse" color-interpolation-filters="sRGB">
<feFlood flood-opacity="0" result="BackgroundImageFix"/>
<feColorMatrix in="SourceAlpha" type="matrix" values="0 0 0 0 0 0 0 0 0 0 0 0 0 0 0 0 0 0 127 0" result="hardAlpha"/>
<feOffset dx="3" dy="3"/>
<feGaussianBlur stdDeviation="2"/>
<feComposite in2="hardAlpha" operator="out"/>
<feColorMatrix type="matrix" values="0 0 0 0 0 0 0 0 0 0 0 0 0 0 0 0 0 0 0.25 0"/>
<feBlend mode="normal" in2="BackgroundImageFix" result="effect1_dropShadow_351_221"/>
<feColorMatrix in="SourceAlpha" type="matrix" values="0 0 0 0 0 0 0 0 0 0 0 0 0 0 0 0 0 0 127 0" result="hardAlpha"/>
<feOffset dx="-3" dy="-3"/>
<feGaussianBlur stdDeviation="2.5"/>
<feComposite in2="hardAlpha" operator="out"/>
<feColorMatrix type="matrix" values="0 0 0 0 1 0 0 0 0 1 0 0 0 0 1 0 0 0 0.8 0"/>
<feBlend mode="normal" in2="effect1_dropShadow_351_221" result="effect2_dropShadow_351_221"/>
<feBlend mode="normal" in="SourceGraphic" in2="effect2_dropShadow_351_221" result="shape"/>
<feColorMatrix in="SourceAlpha" type="matrix" values="0 0 0 0 0 0 0 0 0 0 0 0 0 0 0 0 0 0 127 0" result="hardAlpha"/>
<feOffset dx="3" dy="3"/>
<feGaussianBlur stdDeviation="2"/>
<feComposite in2="hardAlpha" operator="arithmetic" k2="-1" k3="1"/>
<feColorMatrix type="matrix" values="0 0 0 0 1 0 0 0 0 1 0 0 0 0 1 0 0 0 0.25 0"/>
<feBlend mode="normal" in2="shape" result="effect3_innerShadow_351_221"/>
<feColorMatrix in="SourceAlpha" type="matrix" values="0 0 0 0 0 0 0 0 0 0 0 0 0 0 0 0 0 0 127 0" result="hardAlpha"/>
<feOffset dx="-3" dy="-3"/>
<feGaussianBlur stdDeviation="1.5"/>
<feComposite in2="hardAlpha" operator="arithmetic" k2="-1" k3="1"/>
<feColorMatrix type="matrix" values="0 0 0 0 0 0 0 0 0 0 0 0 0 0 0 0 0 0 0.2 0"/>
<feBlend mode="normal" in2="effect3_innerShadow_351_221" result="effect4_innerShadow_351_221"/>
</filter>
</defs>
</svg>
