<svg width="35" height="35" viewBox="0 0 35 35" fill="none" xmlns="http://www.w3.org/2000/svg">
<g filter="url(#filter0_dd_258_219)">
<path d="M19.3419 15.8581C19.8963 15.8581 20.428 16.0784 20.82 16.4704C21.212 16.8624 21.4323 17.3941 21.4323 17.9485C21.4323 18.1333 21.5057 18.3105 21.6363 18.4412C21.767 18.5718 21.9442 18.6452 22.129 18.6452C22.3138 18.6452 22.4911 18.5718 22.6217 18.4412C22.7524 18.3105 22.8258 18.1333 22.8258 17.9485C22.8258 17.0245 22.4588 16.1384 21.8054 15.485C21.1521 14.8316 20.2659 14.4646 19.3419 14.4646C19.1572 14.4646 18.9799 14.538 18.8493 14.6687C18.7186 14.7994 18.6452 14.9766 18.6452 15.1614C18.6452 15.3462 18.7186 15.5234 18.8493 15.6541C18.9799 15.7847 19.1572 15.8581 19.3419 15.8581Z" fill="#00ABFF"/>
<path d="M19.3419 13.071C20.6355 13.071 21.8761 13.5849 22.7908 14.4996C23.7055 15.4143 24.2194 16.6549 24.2194 17.9485C24.2194 18.1333 24.2928 18.3105 24.4234 18.4412C24.5541 18.5718 24.7313 18.6452 24.9161 18.6452C25.1009 18.6452 25.2782 18.5718 25.4088 18.4412C25.5395 18.3105 25.6129 18.1333 25.6129 17.9485C25.6129 16.2853 24.9522 14.6902 23.7762 13.5142C22.6002 12.3382 21.0051 11.6775 19.3419 11.6775C19.1571 11.6775 18.9799 11.7509 18.8493 11.8816C18.7186 12.0122 18.6452 12.1895 18.6452 12.3743C18.6452 12.5591 18.7186 12.7363 18.8493 12.867C18.9799 12.9976 19.1571 13.071 19.3419 13.071ZM25.4387 21.3696C25.4004 21.2578 25.3342 21.1575 25.2465 21.0783C25.1587 20.999 25.0522 20.9434 24.937 20.9167L20.7564 19.9621C20.6429 19.9364 20.5248 19.9395 20.4128 19.9711C20.3009 20.0028 20.1986 20.062 20.1154 20.1433C20.0178 20.2339 20.0108 20.2408 19.5579 21.1048C18.0551 20.4124 16.851 19.2032 16.1647 17.6976C17.0496 17.2517 17.0565 17.2517 17.1471 17.1472C17.2284 17.0639 17.2876 16.9617 17.3193 16.8497C17.3509 16.7377 17.354 16.6196 17.3283 16.5061L16.3737 12.3743C16.347 12.2591 16.2914 12.1526 16.2121 12.0648C16.1329 11.9771 16.0326 11.9109 15.9208 11.8726C15.7581 11.8145 15.59 11.7725 15.4191 11.7472C15.243 11.7063 15.0633 11.683 14.8826 11.6775C14.0325 11.6775 13.2173 12.0152 12.6162 12.6163C12.0151 13.2173 11.6774 14.0326 11.6774 14.8827C11.6811 17.7274 12.8128 20.4545 14.8243 22.4661C16.8359 24.4776 19.563 25.6093 22.4078 25.613C22.8287 25.613 23.2454 25.5301 23.6343 25.369C24.0232 25.2079 24.3765 24.9718 24.6741 24.6742C24.9718 24.3766 25.2079 24.0232 25.3689 23.6344C25.53 23.2455 25.6129 22.8287 25.6129 22.4078C25.6131 22.2305 25.5991 22.0534 25.5711 21.8783C25.5418 21.7052 25.4975 21.535 25.4387 21.3696Z" fill="#00ABFF"/>
</g>
<defs>
<filter id="filter0_dd_258_219" x="0.677429" y="0.67749" width="33.9355" height="33.9354" filterUnits="userSpaceOnUse" color-interpolation-filters="sRGB">
<feFlood flood-opacity="0" result="BackgroundImageFix"/>
<feColorMatrix in="SourceAlpha" type="matrix" values="0 0 0 0 0 0 0 0 0 0 0 0 0 0 0 0 0 0 127 0" result="hardAlpha"/>
<feOffset dx="3" dy="3"/>
<feGaussianBlur stdDeviation="3"/>
<feComposite in2="hardAlpha" operator="out"/>
<feColorMatrix type="matrix" values="0 0 0 0 0 0 0 0 0 0 0 0 0 0 0 0 0 0 0.2 0"/>
<feBlend mode="normal" in2="BackgroundImageFix" result="effect1_dropShadow_258_219"/>
<feColorMatrix in="SourceAlpha" type="matrix" values="0 0 0 0 0 0 0 0 0 0 0 0 0 0 0 0 0 0 127 0" result="hardAlpha"/>
<feOffset dx="-4" dy="-4"/>
<feGaussianBlur stdDeviation="3.5"/>
<feComposite in2="hardAlpha" operator="out"/>
<feColorMatrix type="matrix" values="0 0 0 0 1 0 0 0 0 1 0 0 0 0 1 0 0 0 0.7 0"/>
<feBlend mode="normal" in2="effect1_dropShadow_258_219" result="effect2_dropShadow_258_219"/>
<feBlend mode="normal" in="SourceGraphic" in2="effect2_dropShadow_258_219" result="shape"/>
</filter>
</defs>
</svg>
