<svg width="49" height="36" viewBox="0 0 49 36" fill="none" xmlns="http://www.w3.org/2000/svg">
<g filter="url(#filter0_d_331_735)">
<g filter="url(#filter1_ddii_331_735)">
<path d="M30.7885 8H26.2853C25.8659 8 25.4623 8.15619 25.153 8.43734L19.9997 13.1231C19.9945 13.1283 19.9893 13.1388 19.984 13.144C19.1138 13.9562 19.1295 15.2526 19.8739 16.0596C20.5397 16.7833 21.9394 16.9759 22.8149 16.2002C22.8201 16.1949 22.8306 16.1949 22.8359 16.1897L27.0245 12.3786C27.3652 12.0714 27.9 12.0923 28.2093 12.4307C28.5238 12.7691 28.4976 13.295 28.1568 13.6073L26.7886 14.8517L34.4215 21.0057C34.5735 21.1307 34.7098 21.266 34.8356 21.4066V11.3321L31.9733 8.48941C31.664 8.17702 31.2341 8 30.7885 8ZM36.5184 11.3425V22.9998C36.5184 23.9213 37.268 24.6658 38.1959 24.6658H41.551V11.3425H36.5184ZM39.0347 22.9998C38.5734 22.9998 38.1959 22.6249 38.1959 22.1667C38.1959 21.7086 38.5734 21.3337 39.0347 21.3337C39.496 21.3337 39.8735 21.7086 39.8735 22.1667C39.8735 22.6249 39.496 22.9998 39.0347 22.9998ZM8 24.6606H11.3551C12.283 24.6606 13.0327 23.9161 13.0327 22.9946V11.3425H8V24.6606ZM10.5163 21.3337C10.9777 21.3337 11.3551 21.7086 11.3551 22.1667C11.3551 22.6249 10.9777 22.9998 10.5163 22.9998C10.055 22.9998 9.67755 22.6249 9.67755 22.1667C9.67755 21.7034 10.055 21.3337 10.5163 21.3337ZM33.3677 22.3021L25.5409 15.9919L23.9682 17.4237C22.4112 18.8346 20.026 18.6992 18.6367 17.1946C17.2265 15.6639 17.3366 13.295 18.8674 11.8996L23.1556 8H18.7625C18.3169 8 17.8923 8.17702 17.5778 8.48941L14.7102 11.3321V22.9894H15.6696L20.4139 27.2534C21.8503 28.4145 23.963 28.1958 25.132 26.7692L25.1425 26.7588L26.0809 27.5658C26.9144 28.2427 28.1464 28.1125 28.8226 27.2847L30.4687 25.275L30.7518 25.5041C31.47 26.082 32.529 25.9779 33.1109 25.2594L33.6089 24.6502C34.196 23.9317 34.0859 22.8852 33.3677 22.3021Z" fill="black"/>
</g>
<g filter="url(#filter2_ddii_331_735)">
<path d="M30.7885 8H26.2854C25.866 8 25.4623 8.15619 25.153 8.43734L19.9998 13.1231C19.9945 13.1283 19.9893 13.1388 19.9841 13.144C19.1138 13.9562 19.1295 15.2526 19.874 16.0596C20.5397 16.7833 21.9394 16.9759 22.8149 16.2002C22.8202 16.1949 22.8306 16.1949 22.8359 16.1897L27.0245 12.3786C27.3653 12.0714 27.9 12.0923 28.2093 12.4307C28.5238 12.7691 28.4976 13.295 28.1569 13.6073L26.7886 14.8517L34.4215 21.0057C34.5735 21.1307 34.7098 21.266 34.8356 21.4066V11.3321L31.9733 8.48941C31.664 8.17702 31.2341 8 30.7885 8ZM36.5184 11.3425V22.9998C36.5184 23.9213 37.2681 24.6658 38.196 24.6658H41.5511V11.3425H36.5184ZM39.0348 22.9998C38.5734 22.9998 38.196 22.6249 38.196 22.1667C38.196 21.7086 38.5734 21.3337 39.0348 21.3337C39.4961 21.3337 39.8735 21.7086 39.8735 22.1667C39.8735 22.6249 39.4961 22.9998 39.0348 22.9998Z" fill="#06A8FF"/>
</g>
</g>
<defs>
<filter id="filter0_d_331_735" x="4" y="8" width="41.5511" height="28" filterUnits="userSpaceOnUse" color-interpolation-filters="sRGB">
<feFlood flood-opacity="0" result="BackgroundImageFix"/>
<feColorMatrix in="SourceAlpha" type="matrix" values="0 0 0 0 0 0 0 0 0 0 0 0 0 0 0 0 0 0 127 0" result="hardAlpha"/>
<feOffset dy="4"/>
<feGaussianBlur stdDeviation="2"/>
<feComposite in2="hardAlpha" operator="out"/>
<feColorMatrix type="matrix" values="0 0 0 0 0 0 0 0 0 0 0 0 0 0 0 0 0 0 0.25 0"/>
<feBlend mode="normal" in2="BackgroundImageFix" result="effect1_dropShadow_331_735"/>
<feBlend mode="normal" in="SourceGraphic" in2="effect1_dropShadow_331_735" result="shape"/>
</filter>
<filter id="filter1_ddii_331_735" x="0" y="0" width="48.551" height="35" filterUnits="userSpaceOnUse" color-interpolation-filters="sRGB">
<feFlood flood-opacity="0" result="BackgroundImageFix"/>
<feColorMatrix in="SourceAlpha" type="matrix" values="0 0 0 0 0 0 0 0 0 0 0 0 0 0 0 0 0 0 127 0" result="hardAlpha"/>
<feOffset dx="3" dy="3"/>
<feGaussianBlur stdDeviation="2"/>
<feComposite in2="hardAlpha" operator="out"/>
<feColorMatrix type="matrix" values="0 0 0 0 0 0 0 0 0 0 0 0 0 0 0 0 0 0 0.25 0"/>
<feBlend mode="normal" in2="BackgroundImageFix" result="effect1_dropShadow_331_735"/>
<feColorMatrix in="SourceAlpha" type="matrix" values="0 0 0 0 0 0 0 0 0 0 0 0 0 0 0 0 0 0 127 0" result="hardAlpha"/>
<feOffset dx="-3" dy="-3"/>
<feGaussianBlur stdDeviation="2.5"/>
<feComposite in2="hardAlpha" operator="out"/>
<feColorMatrix type="matrix" values="0 0 0 0 1 0 0 0 0 1 0 0 0 0 1 0 0 0 0.8 0"/>
<feBlend mode="normal" in2="effect1_dropShadow_331_735" result="effect2_dropShadow_331_735"/>
<feBlend mode="normal" in="SourceGraphic" in2="effect2_dropShadow_331_735" result="shape"/>
<feColorMatrix in="SourceAlpha" type="matrix" values="0 0 0 0 0 0 0 0 0 0 0 0 0 0 0 0 0 0 127 0" result="hardAlpha"/>
<feOffset dx="3" dy="3"/>
<feGaussianBlur stdDeviation="2"/>
<feComposite in2="hardAlpha" operator="arithmetic" k2="-1" k3="1"/>
<feColorMatrix type="matrix" values="0 0 0 0 1 0 0 0 0 1 0 0 0 0 1 0 0 0 0.25 0"/>
<feBlend mode="normal" in2="shape" result="effect3_innerShadow_331_735"/>
<feColorMatrix in="SourceAlpha" type="matrix" values="0 0 0 0 0 0 0 0 0 0 0 0 0 0 0 0 0 0 127 0" result="hardAlpha"/>
<feOffset dx="-3" dy="-3"/>
<feGaussianBlur stdDeviation="1.5"/>
<feComposite in2="hardAlpha" operator="arithmetic" k2="-1" k3="1"/>
<feColorMatrix type="matrix" values="0 0 0 0 0 0 0 0 0 0 0 0 0 0 0 0 0 0 0.2 0"/>
<feBlend mode="normal" in2="effect3_innerShadow_331_735" result="effect4_innerShadow_331_735"/>
</filter>
<filter id="filter2_ddii_331_735" x="11.323" y="0" width="37.2281" height="31.6658" filterUnits="userSpaceOnUse" color-interpolation-filters="sRGB">
<feFlood flood-opacity="0" result="BackgroundImageFix"/>
<feColorMatrix in="SourceAlpha" type="matrix" values="0 0 0 0 0 0 0 0 0 0 0 0 0 0 0 0 0 0 127 0" result="hardAlpha"/>
<feOffset dx="3" dy="3"/>
<feGaussianBlur stdDeviation="2"/>
<feComposite in2="hardAlpha" operator="out"/>
<feColorMatrix type="matrix" values="0 0 0 0 0 0 0 0 0 0 0 0 0 0 0 0 0 0 0.25 0"/>
<feBlend mode="normal" in2="BackgroundImageFix" result="effect1_dropShadow_331_735"/>
<feColorMatrix in="SourceAlpha" type="matrix" values="0 0 0 0 0 0 0 0 0 0 0 0 0 0 0 0 0 0 127 0" result="hardAlpha"/>
<feOffset dx="-3" dy="-3"/>
<feGaussianBlur stdDeviation="2.5"/>
<feComposite in2="hardAlpha" operator="out"/>
<feColorMatrix type="matrix" values="0 0 0 0 1 0 0 0 0 1 0 0 0 0 1 0 0 0 0.8 0"/>
<feBlend mode="normal" in2="effect1_dropShadow_331_735" result="effect2_dropShadow_331_735"/>
<feBlend mode="normal" in="SourceGraphic" in2="effect2_dropShadow_331_735" result="shape"/>
<feColorMatrix in="SourceAlpha" type="matrix" values="0 0 0 0 0 0 0 0 0 0 0 0 0 0 0 0 0 0 127 0" result="hardAlpha"/>
<feOffset dx="3" dy="3"/>
<feGaussianBlur stdDeviation="2"/>
<feComposite in2="hardAlpha" operator="arithmetic" k2="-1" k3="1"/>
<feColorMatrix type="matrix" values="0 0 0 0 1 0 0 0 0 1 0 0 0 0 1 0 0 0 0.25 0"/>
<feBlend mode="normal" in2="shape" result="effect3_innerShadow_331_735"/>
<feColorMatrix in="SourceAlpha" type="matrix" values="0 0 0 0 0 0 0 0 0 0 0 0 0 0 0 0 0 0 127 0" result="hardAlpha"/>
<feOffset dx="-3" dy="-3"/>
<feGaussianBlur stdDeviation="1.5"/>
<feComposite in2="hardAlpha" operator="arithmetic" k2="-1" k3="1"/>
<feColorMatrix type="matrix" values="0 0 0 0 0 0 0 0 0 0 0 0 0 0 0 0 0 0 0.2 0"/>
<feBlend mode="normal" in2="effect3_innerShadow_331_735" result="effect4_innerShadow_331_735"/>
</filter>
</defs>
</svg>
