<svg width="43" height="41" viewBox="0 0 43 41" fill="none" xmlns="http://www.w3.org/2000/svg">
<g filter="url(#filter0_ddii_351_228)">
<path d="M14.9333 34C14.9333 34 13.2 34 13.2 32.2667C13.2 30.5333 14.9333 25.3334 21.8666 25.3334C28.7999 25.3334 30.5332 30.5333 30.5332 32.2667C30.5332 34 28.7999 34 28.7999 34H14.9333ZM21.8666 23.6867C23.0159 23.6867 24.1181 23.2302 24.9307 22.4175C25.7434 21.6048 26.1999 20.5027 26.1999 19.3534C26.1999 18.2041 25.7434 17.1019 24.9307 16.2893C24.1181 15.4766 23.0159 15.0201 21.8666 15.0201C20.7173 15.0201 19.6151 15.4766 18.8025 16.2893C17.9898 17.1019 17.5333 18.2041 17.5333 19.3534C17.5333 20.5027 17.9898 21.6048 18.8025 22.4175C19.6151 23.2302 20.7173 23.6867 21.8666 23.6867Z" fill="black"/>
</g>
<g filter="url(#filter1_ddii_351_228)">
<path d="M11.4667 8C10.5472 8 9.66548 8.36524 9.01536 9.01536C8.36524 9.66548 8 10.5472 8 11.4667V27.9333C8 28.6228 8.27393 29.2841 8.76152 29.7717C9.24911 30.2593 9.91043 30.5333 10.6 30.5333H11.7319C12.0943 29.2595 12.7242 28.0776 13.5796 27.0666H9.73333V11.4667C9.73333 11.0069 9.91594 10.5661 10.241 10.241C10.5661 9.91594 11.0069 9.73333 11.4667 9.73333H32.2666C32.7263 9.73333 33.1672 9.91594 33.4922 10.241C33.8173 10.5661 33.9999 11.0069 33.9999 11.4667V27.0666H30.1537C31.1139 28.2002 31.6963 29.4465 32.0014 30.5333H33.1332C33.8228 30.5333 34.4841 30.2593 34.9717 29.7717C35.4593 29.2841 35.7332 28.6228 35.7332 27.9333V11.4667C35.7332 10.5472 35.368 9.66548 34.7179 9.01536C34.0678 8.36524 33.186 8 32.2666 8H11.4667Z" fill="#00ABFF"/>
</g>
<defs>
<filter id="filter0_ddii_351_228" x="5.19995" y="7.02007" width="32.3333" height="33.9799" filterUnits="userSpaceOnUse" color-interpolation-filters="sRGB">
<feFlood flood-opacity="0" result="BackgroundImageFix"/>
<feColorMatrix in="SourceAlpha" type="matrix" values="0 0 0 0 0 0 0 0 0 0 0 0 0 0 0 0 0 0 127 0" result="hardAlpha"/>
<feOffset dx="3" dy="3"/>
<feGaussianBlur stdDeviation="2"/>
<feComposite in2="hardAlpha" operator="out"/>
<feColorMatrix type="matrix" values="0 0 0 0 0 0 0 0 0 0 0 0 0 0 0 0 0 0 0.25 0"/>
<feBlend mode="normal" in2="BackgroundImageFix" result="effect1_dropShadow_351_228"/>
<feColorMatrix in="SourceAlpha" type="matrix" values="0 0 0 0 0 0 0 0 0 0 0 0 0 0 0 0 0 0 127 0" result="hardAlpha"/>
<feOffset dx="-3" dy="-3"/>
<feGaussianBlur stdDeviation="2.5"/>
<feComposite in2="hardAlpha" operator="out"/>
<feColorMatrix type="matrix" values="0 0 0 0 1 0 0 0 0 1 0 0 0 0 1 0 0 0 0.8 0"/>
<feBlend mode="normal" in2="effect1_dropShadow_351_228" result="effect2_dropShadow_351_228"/>
<feBlend mode="normal" in="SourceGraphic" in2="effect2_dropShadow_351_228" result="shape"/>
<feColorMatrix in="SourceAlpha" type="matrix" values="0 0 0 0 0 0 0 0 0 0 0 0 0 0 0 0 0 0 127 0" result="hardAlpha"/>
<feOffset dx="3" dy="3"/>
<feGaussianBlur stdDeviation="2"/>
<feComposite in2="hardAlpha" operator="arithmetic" k2="-1" k3="1"/>
<feColorMatrix type="matrix" values="0 0 0 0 1 0 0 0 0 1 0 0 0 0 1 0 0 0 0.25 0"/>
<feBlend mode="normal" in2="shape" result="effect3_innerShadow_351_228"/>
<feColorMatrix in="SourceAlpha" type="matrix" values="0 0 0 0 0 0 0 0 0 0 0 0 0 0 0 0 0 0 127 0" result="hardAlpha"/>
<feOffset dx="-3" dy="-3"/>
<feGaussianBlur stdDeviation="1.5"/>
<feComposite in2="hardAlpha" operator="arithmetic" k2="-1" k3="1"/>
<feColorMatrix type="matrix" values="0 0 0 0 0 0 0 0 0 0 0 0 0 0 0 0 0 0 0.2 0"/>
<feBlend mode="normal" in2="effect3_innerShadow_351_228" result="effect4_innerShadow_351_228"/>
</filter>
<filter id="filter1_ddii_351_228" x="0" y="0" width="42.7333" height="37.5332" filterUnits="userSpaceOnUse" color-interpolation-filters="sRGB">
<feFlood flood-opacity="0" result="BackgroundImageFix"/>
<feColorMatrix in="SourceAlpha" type="matrix" values="0 0 0 0 0 0 0 0 0 0 0 0 0 0 0 0 0 0 127 0" result="hardAlpha"/>
<feOffset dx="3" dy="3"/>
<feGaussianBlur stdDeviation="2"/>
<feComposite in2="hardAlpha" operator="out"/>
<feColorMatrix type="matrix" values="0 0 0 0 0 0 0 0 0 0 0 0 0 0 0 0 0 0 0.25 0"/>
<feBlend mode="normal" in2="BackgroundImageFix" result="effect1_dropShadow_351_228"/>
<feColorMatrix in="SourceAlpha" type="matrix" values="0 0 0 0 0 0 0 0 0 0 0 0 0 0 0 0 0 0 127 0" result="hardAlpha"/>
<feOffset dx="-3" dy="-3"/>
<feGaussianBlur stdDeviation="2.5"/>
<feComposite in2="hardAlpha" operator="out"/>
<feColorMatrix type="matrix" values="0 0 0 0 1 0 0 0 0 1 0 0 0 0 1 0 0 0 0.8 0"/>
<feBlend mode="normal" in2="effect1_dropShadow_351_228" result="effect2_dropShadow_351_228"/>
<feBlend mode="normal" in="SourceGraphic" in2="effect2_dropShadow_351_228" result="shape"/>
<feColorMatrix in="SourceAlpha" type="matrix" values="0 0 0 0 0 0 0 0 0 0 0 0 0 0 0 0 0 0 127 0" result="hardAlpha"/>
<feOffset dx="3" dy="3"/>
<feGaussianBlur stdDeviation="2"/>
<feComposite in2="hardAlpha" operator="arithmetic" k2="-1" k3="1"/>
<feColorMatrix type="matrix" values="0 0 0 0 1 0 0 0 0 1 0 0 0 0 1 0 0 0 0.25 0"/>
<feBlend mode="normal" in2="shape" result="effect3_innerShadow_351_228"/>
<feColorMatrix in="SourceAlpha" type="matrix" values="0 0 0 0 0 0 0 0 0 0 0 0 0 0 0 0 0 0 127 0" result="hardAlpha"/>
<feOffset dx="-3" dy="-3"/>
<feGaussianBlur stdDeviation="1.5"/>
<feComposite in2="hardAlpha" operator="arithmetic" k2="-1" k3="1"/>
<feColorMatrix type="matrix" values="0 0 0 0 0 0 0 0 0 0 0 0 0 0 0 0 0 0 0.2 0"/>
<feBlend mode="normal" in2="effect3_innerShadow_351_228" result="effect4_innerShadow_351_228"/>
</filter>
</defs>
</svg>
