<svg width="50" height="50" viewBox="0 0 50 50" fill="none" xmlns="http://www.w3.org/2000/svg">
<g filter="url(#filter0_ddii_556_62)">
<path d="M10.75 8H38.25C39.768 8 41 9.23197 41 10.75V38.25C41 39.768 39.768 41 38.25 41H10.75C9.23197 41 8 39.768 8 38.25V10.75C8 9.23197 9.23197 8 10.75 8Z" stroke="black" stroke-width="2" shape-rendering="crispEdges"/>
</g>
<g filter="url(#filter1_ddii_556_62)">
<path d="M24.6775 13.816L23.9522 15.0692L23.2428 13.816C22.7885 13.0337 21.8001 12.7703 21.019 13.2173C20.2379 13.6723 19.9749 14.6621 20.4212 15.4443L22.0791 18.3259L16.7707 27.5372H12.626C11.7253 27.5372 11 28.2636 11 29.1655C11 30.0675 11.7253 30.7939 12.626 30.7939H27.4114C28.1208 29.4609 27.2042 27.5372 25.5702 27.5372H20.5248L27.4991 15.4443C27.9454 14.6621 27.6824 13.6643 26.9013 13.2173C26.1202 12.7703 25.1238 13.0337 24.6775 13.816Z" fill="#00ABFF"/>
<path d="M16.1171 35.184L17.6793 32.4701C16.8345 31.4484 15.7664 31.1371 14.4592 31.5442L13.2955 33.5557C12.8492 34.3379 13.1122 35.3357 13.8933 35.7827C14.6744 36.2297 15.6708 35.9663 16.1171 35.184Z" fill="#00ABFF"/>
<path d="M35.374 27.5452H31.1416C29.0135 23.8495 27.4194 21.0797 26.3513 19.2438C25.3869 20.042 24.4145 22.4047 25.7774 24.7594C27.1085 27.0742 29.1171 30.5464 31.7872 35.184C32.2416 35.9663 33.2299 36.2297 34.011 35.7827C34.7922 35.3277 35.0552 34.3379 34.6088 33.5557L33.0227 30.8019H35.374C36.2747 30.8019 37 30.0755 37 29.1735C37 28.2715 36.2747 27.5452 35.374 27.5452Z" fill="#00ABFF"/>
</g>
<defs>
<filter id="filter0_ddii_556_62" x="0" y="0" width="50" height="50" filterUnits="userSpaceOnUse" color-interpolation-filters="sRGB">
<feFlood flood-opacity="0" result="BackgroundImageFix"/>
<feColorMatrix in="SourceAlpha" type="matrix" values="0 0 0 0 0 0 0 0 0 0 0 0 0 0 0 0 0 0 127 0" result="hardAlpha"/>
<feOffset dx="3" dy="3"/>
<feGaussianBlur stdDeviation="2.5"/>
<feComposite in2="hardAlpha" operator="out"/>
<feColorMatrix type="matrix" values="0 0 0 0 0 0 0 0 0 0 0 0 0 0 0 0 0 0 0.25 0"/>
<feBlend mode="normal" in2="BackgroundImageFix" result="effect1_dropShadow_556_62"/>
<feColorMatrix in="SourceAlpha" type="matrix" values="0 0 0 0 0 0 0 0 0 0 0 0 0 0 0 0 0 0 127 0" result="hardAlpha"/>
<feOffset dx="-3" dy="-3"/>
<feGaussianBlur stdDeviation="2"/>
<feComposite in2="hardAlpha" operator="out"/>
<feColorMatrix type="matrix" values="0 0 0 0 1 0 0 0 0 1 0 0 0 0 1 0 0 0 0.7 0"/>
<feBlend mode="normal" in2="effect1_dropShadow_556_62" result="effect2_dropShadow_556_62"/>
<feBlend mode="normal" in="SourceGraphic" in2="effect2_dropShadow_556_62" result="shape"/>
<feColorMatrix in="SourceAlpha" type="matrix" values="0 0 0 0 0 0 0 0 0 0 0 0 0 0 0 0 0 0 127 0" result="hardAlpha"/>
<feOffset dx="3" dy="3"/>
<feGaussianBlur stdDeviation="1.5"/>
<feComposite in2="hardAlpha" operator="arithmetic" k2="-1" k3="1"/>
<feColorMatrix type="matrix" values="0 0 0 0 1 0 0 0 0 1 0 0 0 0 1 0 0 0 0.2 0"/>
<feBlend mode="normal" in2="shape" result="effect3_innerShadow_556_62"/>
<feColorMatrix in="SourceAlpha" type="matrix" values="0 0 0 0 0 0 0 0 0 0 0 0 0 0 0 0 0 0 127 0" result="hardAlpha"/>
<feOffset dx="-3" dy="-3"/>
<feGaussianBlur stdDeviation="1.5"/>
<feComposite in2="hardAlpha" operator="arithmetic" k2="-1" k3="1"/>
<feColorMatrix type="matrix" values="0 0 0 0 0 0 0 0 0 0 0 0 0 0 0 0 0 0 0.2 0"/>
<feBlend mode="normal" in2="effect3_innerShadow_556_62" result="effect4_innerShadow_556_62"/>
</filter>
<filter id="filter1_ddii_556_62" x="5" y="7" width="40" height="37" filterUnits="userSpaceOnUse" color-interpolation-filters="sRGB">
<feFlood flood-opacity="0" result="BackgroundImageFix"/>
<feColorMatrix in="SourceAlpha" type="matrix" values="0 0 0 0 0 0 0 0 0 0 0 0 0 0 0 0 0 0 127 0" result="hardAlpha"/>
<feOffset dx="3" dy="3"/>
<feGaussianBlur stdDeviation="2.5"/>
<feComposite in2="hardAlpha" operator="out"/>
<feColorMatrix type="matrix" values="0 0 0 0 0 0 0 0 0 0 0 0 0 0 0 0 0 0 0.25 0"/>
<feBlend mode="normal" in2="BackgroundImageFix" result="effect1_dropShadow_556_62"/>
<feColorMatrix in="SourceAlpha" type="matrix" values="0 0 0 0 0 0 0 0 0 0 0 0 0 0 0 0 0 0 127 0" result="hardAlpha"/>
<feOffset dx="-2" dy="-2"/>
<feGaussianBlur stdDeviation="2"/>
<feComposite in2="hardAlpha" operator="out"/>
<feColorMatrix type="matrix" values="0 0 0 0 1 0 0 0 0 1 0 0 0 0 1 0 0 0 0.5 0"/>
<feBlend mode="normal" in2="effect1_dropShadow_556_62" result="effect2_dropShadow_556_62"/>
<feBlend mode="normal" in="SourceGraphic" in2="effect2_dropShadow_556_62" result="shape"/>
<feColorMatrix in="SourceAlpha" type="matrix" values="0 0 0 0 0 0 0 0 0 0 0 0 0 0 0 0 0 0 127 0" result="hardAlpha"/>
<feOffset dx="3" dy="3"/>
<feGaussianBlur stdDeviation="1.5"/>
<feComposite in2="hardAlpha" operator="arithmetic" k2="-1" k3="1"/>
<feColorMatrix type="matrix" values="0 0 0 0 1 0 0 0 0 1 0 0 0 0 1 0 0 0 0.2 0"/>
<feBlend mode="normal" in2="shape" result="effect3_innerShadow_556_62"/>
<feColorMatrix in="SourceAlpha" type="matrix" values="0 0 0 0 0 0 0 0 0 0 0 0 0 0 0 0 0 0 127 0" result="hardAlpha"/>
<feOffset dx="-3" dy="-3"/>
<feGaussianBlur stdDeviation="1.5"/>
<feComposite in2="hardAlpha" operator="arithmetic" k2="-1" k3="1"/>
<feColorMatrix type="matrix" values="0 0 0 0 0 0 0 0 0 0 0 0 0 0 0 0 0 0 0.2 0"/>
<feBlend mode="normal" in2="effect3_innerShadow_556_62" result="effect4_innerShadow_556_62"/>
</filter>
</defs>
</svg>
