<svg width="44" height="41" viewBox="0 0 44 41" fill="none" xmlns="http://www.w3.org/2000/svg">
<g filter="url(#filter0_ddii_351_232)">
<path d="M36.8886 34C35.2853 34 34.3898 33.4656 33.7398 33.0756C33.2053 32.7578 32.8731 32.5556 32.0787 32.5556C31.2698 32.5556 30.952 32.7433 30.4176 33.0756C29.7531 33.4656 28.872 34 27.2687 34C25.6654 34 24.7699 33.4656 24.1199 33.0756C23.5854 32.7578 23.2532 32.5556 22.4588 32.5556C21.6499 32.5556 21.3321 32.7433 20.7977 33.0756C20.1332 33.4656 19.2377 34 17.6344 34C16.031 34 15.1355 33.4656 14.4855 33.0756C13.9511 32.7433 13.6188 32.5556 12.8244 32.5556C12.03 32.5556 11.6977 32.7433 11.1633 33.0756C10.4989 33.4656 9.60332 34 8 34V31.1111C8.80888 31.1111 9.12666 30.9234 9.6611 30.5911C10.3255 30.2011 11.2211 29.6667 12.8244 29.6667C14.4277 29.6667 15.3233 30.2011 15.9733 30.5911C16.5077 30.9234 16.8255 31.1111 17.6344 31.1111C18.4432 31.1111 18.761 30.9234 19.2955 30.5911C19.9599 30.2011 20.8554 29.6667 22.4588 29.6667C24.0621 29.6667 24.9576 30.2011 25.6076 30.5911C26.1421 30.9089 26.4743 31.1111 27.2687 31.1111C28.0632 31.1111 28.3954 30.9234 28.9298 30.5911C29.5798 30.2011 30.4754 29.6667 32.0787 29.6667C33.682 29.6667 34.5775 30.2011 35.2275 30.5911C35.762 30.9234 36.0798 31.1111 36.8886 31.1111V34ZM36.8886 27.5001C35.2853 27.5001 34.3898 26.9656 33.7398 26.5756C33.2053 26.2578 32.8731 26.0556 32.0787 26.0556C31.2698 26.0556 30.952 26.2434 30.4176 26.5756C29.7676 26.9656 28.872 27.5001 27.2687 27.5001C25.6654 27.5001 24.7699 26.9656 24.1199 26.5756C23.5854 26.2578 23.2532 26.0556 22.4588 26.0556C21.6499 26.0556 21.3321 26.2434 20.7977 26.5756C20.1477 26.9656 19.2521 27.5001 17.6488 27.5001C16.0455 27.5001 15.1499 26.9656 14.4999 26.5756C13.9655 26.2578 13.6333 26.0556 12.8388 26.0556C12.0444 26.0556 11.7122 26.2434 11.1777 26.5756C10.4989 26.9656 9.60332 27.5001 8 27.5001V24.6112C8.80888 24.6112 9.12666 24.4234 9.6611 24.0912C10.3111 23.7012 11.2066 23.1668 12.81 23.1668C14.4133 23.1668 15.3088 23.7012 15.9588 24.0912C16.4933 24.409 16.8255 24.6112 17.6199 24.6112C18.4288 24.6112 18.7466 24.4234 19.281 24.0912C19.931 23.7012 20.8266 23.1668 22.4299 23.1668C24.0332 23.1668 24.9287 23.7012 25.5787 24.0912C26.1132 24.409 26.4454 24.6112 27.2398 24.6112C28.0343 24.6112 28.3665 24.4234 28.9009 24.0912C29.5509 23.7012 30.4465 23.1668 32.0498 23.1668C33.6531 23.1668 34.5487 23.7012 35.1986 24.0912C35.7331 24.409 36.0653 24.6112 36.8597 24.6112V27.5001H36.8886ZM17.6344 21.0001C18.4432 21.0001 18.761 20.8123 19.2955 20.4801C19.9599 20.0901 20.8554 19.5557 22.4588 19.5557C24.0621 19.5557 24.9576 20.0901 25.6076 20.4801C26.1421 20.7979 26.4743 21.0001 27.2687 21.0001C28.0632 21.0001 28.3954 20.8123 28.9298 20.4801C29.1031 20.379 29.3054 20.2635 29.522 20.1479L20.2488 10.8891C18.0099 8.65022 15.9444 7.98579 12.3333 8.00023V11.6113C14.9622 11.5969 16.5077 12.1746 18.111 13.778L19.5555 15.2224L14.8611 19.9168C15.3088 20.0901 15.6699 20.3068 15.9733 20.4801C16.5077 20.8123 16.8255 21.0001 17.6344 21.0001Z" fill="#00ABFF"/>
</g>
<g filter="url(#filter1_ddii_351_232)">
<path d="M17.6344 21.0001C18.4433 21.0001 18.761 20.8123 19.2955 20.4801C19.9599 20.0901 20.8555 19.5557 22.4588 19.5557C24.0621 19.5557 24.9576 20.0901 25.6076 20.4801C26.1421 20.7979 26.4743 21.0001 27.2687 21.0001C28.0632 21.0001 28.3954 20.8123 28.9298 20.4801C29.1032 20.379 29.3054 20.2635 29.522 20.1479L20.2488 10.8891C18.0099 8.65022 15.9444 7.98579 12.3333 8.00023V11.6113C14.9622 11.5969 16.5077 12.1746 18.111 13.778L19.5555 15.2224L14.8611 19.9168C15.3088 20.0901 15.67 20.3068 15.9733 20.4801C16.5077 20.8123 16.8255 21.0001 17.6344 21.0001Z" fill="black"/>
</g>
<g filter="url(#filter2_ddii_351_232)">
<path d="M28.9444 15.2224C30.9387 15.2224 32.5555 13.6057 32.5555 11.6114C32.5555 9.61701 30.9387 8.00027 28.9444 8.00027C26.95 8.00027 25.3333 9.61701 25.3333 11.6114C25.3333 13.6057 26.95 15.2224 28.9444 15.2224Z" fill="black"/>
</g>
<defs>
<filter id="filter0_ddii_351_232" x="0" y="0" width="43.8886" height="41" filterUnits="userSpaceOnUse" color-interpolation-filters="sRGB">
<feFlood flood-opacity="0" result="BackgroundImageFix"/>
<feColorMatrix in="SourceAlpha" type="matrix" values="0 0 0 0 0 0 0 0 0 0 0 0 0 0 0 0 0 0 127 0" result="hardAlpha"/>
<feOffset dx="3" dy="3"/>
<feGaussianBlur stdDeviation="2"/>
<feComposite in2="hardAlpha" operator="out"/>
<feColorMatrix type="matrix" values="0 0 0 0 0 0 0 0 0 0 0 0 0 0 0 0 0 0 0.25 0"/>
<feBlend mode="normal" in2="BackgroundImageFix" result="effect1_dropShadow_351_232"/>
<feColorMatrix in="SourceAlpha" type="matrix" values="0 0 0 0 0 0 0 0 0 0 0 0 0 0 0 0 0 0 127 0" result="hardAlpha"/>
<feOffset dx="-3" dy="-3"/>
<feGaussianBlur stdDeviation="2.5"/>
<feComposite in2="hardAlpha" operator="out"/>
<feColorMatrix type="matrix" values="0 0 0 0 1 0 0 0 0 1 0 0 0 0 1 0 0 0 0.8 0"/>
<feBlend mode="normal" in2="effect1_dropShadow_351_232" result="effect2_dropShadow_351_232"/>
<feBlend mode="normal" in="SourceGraphic" in2="effect2_dropShadow_351_232" result="shape"/>
<feColorMatrix in="SourceAlpha" type="matrix" values="0 0 0 0 0 0 0 0 0 0 0 0 0 0 0 0 0 0 127 0" result="hardAlpha"/>
<feOffset dx="3" dy="3"/>
<feGaussianBlur stdDeviation="2"/>
<feComposite in2="hardAlpha" operator="arithmetic" k2="-1" k3="1"/>
<feColorMatrix type="matrix" values="0 0 0 0 1 0 0 0 0 1 0 0 0 0 1 0 0 0 0.25 0"/>
<feBlend mode="normal" in2="shape" result="effect3_innerShadow_351_232"/>
<feColorMatrix in="SourceAlpha" type="matrix" values="0 0 0 0 0 0 0 0 0 0 0 0 0 0 0 0 0 0 127 0" result="hardAlpha"/>
<feOffset dx="-3" dy="-3"/>
<feGaussianBlur stdDeviation="1.5"/>
<feComposite in2="hardAlpha" operator="arithmetic" k2="-1" k3="1"/>
<feColorMatrix type="matrix" values="0 0 0 0 0 0 0 0 0 0 0 0 0 0 0 0 0 0 0.2 0"/>
<feBlend mode="normal" in2="effect3_innerShadow_351_232" result="effect4_innerShadow_351_232"/>
</filter>
<filter id="filter1_ddii_351_232" x="4.33331" y="0" width="32.1887" height="28.0001" filterUnits="userSpaceOnUse" color-interpolation-filters="sRGB">
<feFlood flood-opacity="0" result="BackgroundImageFix"/>
<feColorMatrix in="SourceAlpha" type="matrix" values="0 0 0 0 0 0 0 0 0 0 0 0 0 0 0 0 0 0 127 0" result="hardAlpha"/>
<feOffset dx="3" dy="3"/>
<feGaussianBlur stdDeviation="2"/>
<feComposite in2="hardAlpha" operator="out"/>
<feColorMatrix type="matrix" values="0 0 0 0 0 0 0 0 0 0 0 0 0 0 0 0 0 0 0.25 0"/>
<feBlend mode="normal" in2="BackgroundImageFix" result="effect1_dropShadow_351_232"/>
<feColorMatrix in="SourceAlpha" type="matrix" values="0 0 0 0 0 0 0 0 0 0 0 0 0 0 0 0 0 0 127 0" result="hardAlpha"/>
<feOffset dx="-3" dy="-3"/>
<feGaussianBlur stdDeviation="2.5"/>
<feComposite in2="hardAlpha" operator="out"/>
<feColorMatrix type="matrix" values="0 0 0 0 1 0 0 0 0 1 0 0 0 0 1 0 0 0 0.8 0"/>
<feBlend mode="normal" in2="effect1_dropShadow_351_232" result="effect2_dropShadow_351_232"/>
<feBlend mode="normal" in="SourceGraphic" in2="effect2_dropShadow_351_232" result="shape"/>
<feColorMatrix in="SourceAlpha" type="matrix" values="0 0 0 0 0 0 0 0 0 0 0 0 0 0 0 0 0 0 127 0" result="hardAlpha"/>
<feOffset dx="3" dy="3"/>
<feGaussianBlur stdDeviation="2"/>
<feComposite in2="hardAlpha" operator="arithmetic" k2="-1" k3="1"/>
<feColorMatrix type="matrix" values="0 0 0 0 1 0 0 0 0 1 0 0 0 0 1 0 0 0 0.25 0"/>
<feBlend mode="normal" in2="shape" result="effect3_innerShadow_351_232"/>
<feColorMatrix in="SourceAlpha" type="matrix" values="0 0 0 0 0 0 0 0 0 0 0 0 0 0 0 0 0 0 127 0" result="hardAlpha"/>
<feOffset dx="-3" dy="-3"/>
<feGaussianBlur stdDeviation="1.5"/>
<feComposite in2="hardAlpha" operator="arithmetic" k2="-1" k3="1"/>
<feColorMatrix type="matrix" values="0 0 0 0 0 0 0 0 0 0 0 0 0 0 0 0 0 0 0.2 0"/>
<feBlend mode="normal" in2="effect3_innerShadow_351_232" result="effect4_innerShadow_351_232"/>
</filter>
<filter id="filter2_ddii_351_232" x="17.3333" y="0.000274658" width="22.2222" height="22.2222" filterUnits="userSpaceOnUse" color-interpolation-filters="sRGB">
<feFlood flood-opacity="0" result="BackgroundImageFix"/>
<feColorMatrix in="SourceAlpha" type="matrix" values="0 0 0 0 0 0 0 0 0 0 0 0 0 0 0 0 0 0 127 0" result="hardAlpha"/>
<feOffset dx="3" dy="3"/>
<feGaussianBlur stdDeviation="2"/>
<feComposite in2="hardAlpha" operator="out"/>
<feColorMatrix type="matrix" values="0 0 0 0 0 0 0 0 0 0 0 0 0 0 0 0 0 0 0.25 0"/>
<feBlend mode="normal" in2="BackgroundImageFix" result="effect1_dropShadow_351_232"/>
<feColorMatrix in="SourceAlpha" type="matrix" values="0 0 0 0 0 0 0 0 0 0 0 0 0 0 0 0 0 0 127 0" result="hardAlpha"/>
<feOffset dx="-3" dy="-3"/>
<feGaussianBlur stdDeviation="2.5"/>
<feComposite in2="hardAlpha" operator="out"/>
<feColorMatrix type="matrix" values="0 0 0 0 1 0 0 0 0 1 0 0 0 0 1 0 0 0 0.8 0"/>
<feBlend mode="normal" in2="effect1_dropShadow_351_232" result="effect2_dropShadow_351_232"/>
<feBlend mode="normal" in="SourceGraphic" in2="effect2_dropShadow_351_232" result="shape"/>
<feColorMatrix in="SourceAlpha" type="matrix" values="0 0 0 0 0 0 0 0 0 0 0 0 0 0 0 0 0 0 127 0" result="hardAlpha"/>
<feOffset dx="3" dy="3"/>
<feGaussianBlur stdDeviation="2"/>
<feComposite in2="hardAlpha" operator="arithmetic" k2="-1" k3="1"/>
<feColorMatrix type="matrix" values="0 0 0 0 1 0 0 0 0 1 0 0 0 0 1 0 0 0 0.25 0"/>
<feBlend mode="normal" in2="shape" result="effect3_innerShadow_351_232"/>
<feColorMatrix in="SourceAlpha" type="matrix" values="0 0 0 0 0 0 0 0 0 0 0 0 0 0 0 0 0 0 127 0" result="hardAlpha"/>
<feOffset dx="-3" dy="-3"/>
<feGaussianBlur stdDeviation="1.5"/>
<feComposite in2="hardAlpha" operator="arithmetic" k2="-1" k3="1"/>
<feColorMatrix type="matrix" values="0 0 0 0 0 0 0 0 0 0 0 0 0 0 0 0 0 0 0.2 0"/>
<feBlend mode="normal" in2="effect3_innerShadow_351_232" result="effect4_innerShadow_351_232"/>
</filter>
</defs>
</svg>
