<svg width="35" height="35" viewBox="0 0 35 35" fill="none" xmlns="http://www.w3.org/2000/svg">
<g filter="url(#filter0_dd_258_218)">
<path d="M25.4157 19.5891C25.4743 19.229 25.5034 18.8648 25.5028 18.5C25.5028 16.647 24.765 14.87 23.4518 13.5597C22.1385 12.2495 20.3573 11.5134 18.5 11.5134C18.1344 11.5128 17.7693 11.5419 17.4083 11.6003C16.5989 11.1166 15.6508 10.9165 14.7143 11.0318C13.7779 11.1472 12.907 11.5713 12.2398 12.237C11.5727 12.9026 11.1475 13.7715 11.0319 14.7057C10.9163 15.64 11.1168 16.586 11.6017 17.3935C11.5364 17.7588 11.5014 18.1289 11.4972 18.5C11.4972 20.353 12.235 22.13 13.5482 23.4403C14.8615 24.7505 16.6427 25.4866 18.5 25.4866C18.8656 25.4872 19.2307 25.4581 19.5917 25.3997C20.4011 25.8834 21.3492 26.0835 22.2857 25.9682C23.2221 25.8528 24.093 25.4287 24.7602 24.763C25.4273 24.0974 25.8525 23.2285 25.9681 22.2943C26.0837 21.36 25.8832 20.414 25.3983 19.6065L25.4157 19.5891ZM21.8272 21.6747C21.4995 22.1268 21.0478 22.4748 20.5265 22.6769C19.8834 22.9287 19.1966 23.0508 18.5058 23.0361C17.7018 23.0697 16.9019 22.9045 16.1773 22.5552C15.7549 22.3287 15.3926 22.005 15.1205 21.611C14.8713 21.2743 14.7296 20.8705 14.7141 20.4523C14.7134 20.3438 14.7353 20.2363 14.7783 20.1366C14.8212 20.037 14.8844 19.9472 14.9637 19.873C15.1396 19.7237 15.366 19.647 15.5967 19.6586C15.7894 19.655 15.977 19.7208 16.1251 19.844C16.2871 19.9953 16.4123 20.1816 16.4909 20.3886C16.5916 20.6305 16.7202 20.8599 16.8741 21.0722C17.0275 21.2681 17.227 21.4234 17.4548 21.5241C17.7643 21.6565 18.0997 21.7179 18.4361 21.7036C18.9154 21.7268 19.39 21.6013 19.7949 21.3445C19.9503 21.2537 20.0795 21.1243 20.17 20.969C20.2606 20.8137 20.3094 20.6377 20.3117 20.4581C20.3167 20.3323 20.295 20.2069 20.2479 20.0901C20.2009 19.9732 20.1296 19.8677 20.0388 19.7803C19.832 19.5903 19.5834 19.4514 19.3129 19.3748C19.011 19.2763 18.6103 19.1778 18.1051 19.0677C17.525 18.933 16.9591 18.7429 16.4154 18.5C15.9876 18.3251 15.6103 18.0463 15.3179 17.689C15.0406 17.3206 14.8973 16.8691 14.9115 16.4087C14.9068 15.9406 15.0579 15.4842 15.3412 15.111C15.6647 14.7099 16.0956 14.4086 16.5838 14.242C17.2011 14.0374 17.8498 13.9433 18.5 13.9639C19.0087 13.9549 19.5158 14.0233 20.0039 14.1667C20.387 14.2802 20.7468 14.4606 21.0665 14.6997C21.3182 14.8882 21.5278 15.1269 21.6821 15.4006C21.8076 15.6217 21.8755 15.8707 21.8795 16.1248C21.8787 16.2331 21.8563 16.3401 21.8134 16.4396C21.7705 16.5391 21.7081 16.6291 21.6298 16.7041C21.5508 16.7895 21.4546 16.8574 21.3476 16.9033C21.2405 16.9492 21.125 16.9722 21.0085 16.9706C20.8217 16.9851 20.6365 16.927 20.4917 16.8084C20.3393 16.6619 20.2118 16.4917 20.1143 16.3044C19.9704 16.0091 19.7621 15.7498 19.5046 15.5455C19.1666 15.3353 18.7688 15.2416 18.3723 15.279C17.9653 15.2619 17.562 15.3624 17.2109 15.5686C17.0834 15.6366 16.9757 15.7363 16.8984 15.8582C16.821 15.98 16.7767 16.1198 16.7696 16.2638C16.765 16.4212 16.8164 16.5751 16.9148 16.6983C17.0306 16.8322 17.1729 16.9407 17.3329 17.0169C17.5032 17.1048 17.6822 17.1747 17.8671 17.2255C18.0529 17.2776 18.3548 17.3529 18.7787 17.4514C19.3129 17.5673 19.7891 17.6947 20.2246 17.8338C20.6141 17.9522 20.9854 18.1237 21.3278 18.3436C21.6266 18.5321 21.8723 18.7932 22.0421 19.1025C22.2146 19.4552 22.2946 19.846 22.2743 20.238C22.2796 20.7517 22.1232 21.2542 21.8272 21.6747Z" fill="#00ABFF"/>
</g>
<defs>
<filter id="filter0_dd_258_218" x="0" y="0" width="35" height="35" filterUnits="userSpaceOnUse" color-interpolation-filters="sRGB">
<feFlood flood-opacity="0" result="BackgroundImageFix"/>
<feColorMatrix in="SourceAlpha" type="matrix" values="0 0 0 0 0 0 0 0 0 0 0 0 0 0 0 0 0 0 127 0" result="hardAlpha"/>
<feOffset dx="3" dy="3"/>
<feGaussianBlur stdDeviation="3"/>
<feComposite in2="hardAlpha" operator="out"/>
<feColorMatrix type="matrix" values="0 0 0 0 0 0 0 0 0 0 0 0 0 0 0 0 0 0 0.2 0"/>
<feBlend mode="normal" in2="BackgroundImageFix" result="effect1_dropShadow_258_218"/>
<feColorMatrix in="SourceAlpha" type="matrix" values="0 0 0 0 0 0 0 0 0 0 0 0 0 0 0 0 0 0 127 0" result="hardAlpha"/>
<feOffset dx="-4" dy="-4"/>
<feGaussianBlur stdDeviation="3.5"/>
<feComposite in2="hardAlpha" operator="out"/>
<feColorMatrix type="matrix" values="0 0 0 0 1 0 0 0 0 1 0 0 0 0 1 0 0 0 0.7 0"/>
<feBlend mode="normal" in2="effect1_dropShadow_258_218" result="effect2_dropShadow_258_218"/>
<feBlend mode="normal" in="SourceGraphic" in2="effect2_dropShadow_258_218" result="shape"/>
</filter>
</defs>
</svg>
