<svg width="49" height="55" viewBox="0 0 49 55" fill="none" xmlns="http://www.w3.org/2000/svg">
<g filter="url(#filter0_ddii_303_196)">
<path d="M17.8069 46.9973C15.3881 45.9606 13.1247 43.3257 13.1193 40.6297C13.1127 37.6903 14.9913 35.1948 17.3279 33.5547C17.047 34.607 16.8938 35.5696 17.5897 36.5109C18.2366 37.386 19.3697 37.8112 20.4396 37.5804C22.9395 37.0378 23.0542 34.3128 21.5721 32.7252C20.1068 31.153 18.6893 29.3771 19.2471 27.0971C19.5263 25.9542 20.234 24.8836 21.1306 24.1184C20.4414 25.9142 22.3998 27.6852 23.6901 28.5673C25.9284 30.0978 28.3842 31.2545 30.4422 33.0486C32.607 34.9341 34.2055 37.4836 33.8827 40.4406C33.5329 43.6456 30.9645 45.8747 28.0835 47C34.1714 45.6676 40.4618 40.9826 40.5907 34.2878C40.6975 28.78 36.887 24.5413 32.1668 22.1146L31.9202 21.9811C32.0497 22.2928 32.0921 22.5579 32.0872 22.7953C32.1294 22.6202 32.1582 22.4404 32.1663 22.2548C32.1651 22.4753 32.1361 22.6947 32.0798 22.908L32.0872 22.7953C32.0171 23.0877 31.8991 23.3667 31.7377 23.6211L31.807 23.5473C30.8653 25.096 28.3159 25.4323 27.0565 23.8287C25.0319 21.249 27.0989 18.4678 27.3881 15.7361C27.7501 12.3125 25.5848 8.9889 22.9001 7C24.3788 9.37177 22.4307 12.5096 20.8722 14.2639C19.3609 15.9644 17.523 17.3841 15.8546 18.9292C14.0625 20.5886 12.3396 22.3367 10.8665 24.2844C7.92036 28.1828 6.11672 33.0858 7.44217 37.9492C8.76677 42.8093 13.0124 45.9033 17.8069 46.9973Z" fill="#EE4323"/>
</g>
<defs>
<filter id="filter0_ddii_303_196" x="0" y="0" width="48.5929" height="55" filterUnits="userSpaceOnUse" color-interpolation-filters="sRGB">
<feFlood flood-opacity="0" result="BackgroundImageFix"/>
<feColorMatrix in="SourceAlpha" type="matrix" values="0 0 0 0 0 0 0 0 0 0 0 0 0 0 0 0 0 0 127 0" result="hardAlpha"/>
<feOffset dx="3" dy="3"/>
<feGaussianBlur stdDeviation="2.5"/>
<feComposite in2="hardAlpha" operator="out"/>
<feColorMatrix type="matrix" values="0 0 0 0 0 0 0 0 0 0 0 0 0 0 0 0 0 0 0.25 0"/>
<feBlend mode="normal" in2="BackgroundImageFix" result="effect1_dropShadow_303_196"/>
<feColorMatrix in="SourceAlpha" type="matrix" values="0 0 0 0 0 0 0 0 0 0 0 0 0 0 0 0 0 0 127 0" result="hardAlpha"/>
<feOffset dx="-3" dy="-3"/>
<feGaussianBlur stdDeviation="2"/>
<feComposite in2="hardAlpha" operator="out"/>
<feColorMatrix type="matrix" values="0 0 0 0 1 0 0 0 0 1 0 0 0 0 1 0 0 0 0.9 0"/>
<feBlend mode="normal" in2="effect1_dropShadow_303_196" result="effect2_dropShadow_303_196"/>
<feBlend mode="normal" in="SourceGraphic" in2="effect2_dropShadow_303_196" result="shape"/>
<feColorMatrix in="SourceAlpha" type="matrix" values="0 0 0 0 0 0 0 0 0 0 0 0 0 0 0 0 0 0 127 0" result="hardAlpha"/>
<feOffset dx="3" dy="3"/>
<feGaussianBlur stdDeviation="1.5"/>
<feComposite in2="hardAlpha" operator="arithmetic" k2="-1" k3="1"/>
<feColorMatrix type="matrix" values="0 0 0 0 1 0 0 0 0 1 0 0 0 0 1 0 0 0 0.2 0"/>
<feBlend mode="normal" in2="shape" result="effect3_innerShadow_303_196"/>
<feColorMatrix in="SourceAlpha" type="matrix" values="0 0 0 0 0 0 0 0 0 0 0 0 0 0 0 0 0 0 127 0" result="hardAlpha"/>
<feOffset dx="-3" dy="-3"/>
<feGaussianBlur stdDeviation="1.5"/>
<feComposite in2="hardAlpha" operator="arithmetic" k2="-1" k3="1"/>
<feColorMatrix type="matrix" values="0 0 0 0 0 0 0 0 0 0 0 0 0 0 0 0 0 0 0.2 0"/>
<feBlend mode="normal" in2="effect3_innerShadow_303_196" result="effect4_innerShadow_303_196"/>
</filter>
</defs>
</svg>
