<svg width="69" height="47" viewBox="0 0 69 47" fill="none" xmlns="http://www.w3.org/2000/svg">
<g filter="url(#filter0_ddii_303_260)">
<path fill-rule="evenodd" clip-rule="evenodd" d="M55.6466 7H11.9789C9.21541 7 6.97836 9.26374 7.00016 12.0109V28.7143C7.00016 31.4835 9.23741 33.7254 12.0009 33.7254H32.6831L42.1363 39L39.9866 33.7254H55.6466C58.41 33.7254 60.6471 31.4835 60.6471 28.7143V12.0109C60.6471 9.24169 58.41 7 55.6466 7ZM11.0578 10.8681C10.4438 10.9122 9.98323 11.1319 9.67602 11.5495C9.36901 11.9449 9.25941 12.4504 9.32522 13.022C10.6192 21.2639 11.8255 26.8241 12.9441 29.7033C13.3827 30.7581 13.8871 31.2638 14.4793 31.2199C15.4005 31.1538 16.4972 29.8791 17.7912 27.3957C18.471 25.989 19.5238 23.8791 20.9492 21.0658C22.1337 25.2197 23.7567 28.3407 25.7963 30.4287C26.3668 31.0219 26.959 31.2856 27.529 31.2418C28.0336 31.1977 28.4284 30.9341 28.6916 30.4505C28.9108 30.033 28.9986 29.5494 28.9548 29.0001C28.8232 27.0001 29.0206 24.2088 29.5688 20.6263C30.139 16.934 30.8409 14.2746 31.6963 12.6923C31.8717 12.3626 31.9375 12.0329 31.9157 11.6373C31.8717 11.1319 31.6525 10.7144 31.2357 10.3847C30.8191 10.055 30.3584 9.90107 29.854 9.94496C29.218 9.98906 28.7354 10.2967 28.4064 10.912C27.0466 13.3956 26.0816 17.4176 25.5113 22.9999C24.6779 20.8901 23.9763 18.4069 23.4277 15.4838C23.1867 14.1871 22.5943 13.5716 21.6293 13.6375C20.9712 13.6816 20.423 14.1211 19.9842 14.9563L15.1811 24.1208C14.3915 20.934 13.6459 17.044 12.9661 12.4506C12.8125 11.3076 12.1765 10.7801 11.0578 10.8681ZM53.3217 12.4506C54.8789 12.7803 56.0414 13.6155 56.831 14.9999C57.5328 16.1868 57.8836 17.6154 57.8836 19.3298C57.8836 21.5936 57.3136 23.6595 56.173 25.5494C54.8569 27.7474 53.1463 28.8463 51.0189 28.8463C50.6459 28.8463 50.2513 28.8023 49.8344 28.7143C48.2774 28.3846 47.1148 27.5496 46.3252 26.1649C45.6234 24.9562 45.2726 23.5056 45.2726 21.8132C45.2726 19.5495 45.8428 17.4836 46.9832 15.6154C48.3212 13.4176 50.0318 12.3187 52.1375 12.3187C52.5103 12.3187 52.9051 12.3628 53.3217 12.4506ZM52.4007 24.3405C53.2121 23.6154 53.7603 22.5385 54.0675 21.0879C54.1551 20.5824 54.2209 20.0331 54.2209 19.4617C54.2209 18.8242 54.0893 18.1429 53.8261 17.4615C53.4971 16.6045 53.0585 16.1427 52.5321 16.0331C51.7427 15.8792 50.9751 16.3187 50.2513 17.3958C49.659 18.2309 49.286 19.11 49.0888 20.011C48.979 20.5165 48.9352 21.0661 48.9352 21.6154C48.9352 22.2527 49.0668 22.9342 49.33 23.6154C49.659 24.4726 50.0976 24.9342 50.6241 25.044C51.1723 25.1538 51.7645 24.9121 52.4007 24.3405ZM43.0793 14.9999C42.2897 13.6155 41.1053 12.7803 39.57 12.4506C39.1532 12.3626 38.7586 12.3187 38.3856 12.3187C36.2802 12.3187 34.5695 13.4176 33.2315 15.6157C32.0909 17.4836 31.5209 19.5495 31.5209 21.8132C31.5209 23.5058 31.8717 24.9562 32.5735 26.1649C33.3631 27.5496 34.5255 28.3846 36.0828 28.7143C36.4994 28.8023 36.8942 28.8461 37.2672 28.8461C39.3946 28.8461 41.1053 27.7474 42.4213 25.5494C43.5617 23.6595 44.1319 21.5934 44.1319 19.3298C44.1319 17.6154 43.7809 16.1868 43.0793 15.0002V14.9999ZM40.3156 21.0881C40.0086 22.5387 39.4602 23.6156 38.6488 24.3409C38.0128 24.9123 37.4208 25.154 36.8724 25.0444C36.346 24.9344 35.9071 24.4728 35.5784 23.6156C35.3151 22.9344 35.1835 22.2529 35.1835 21.6156C35.1835 21.0663 35.2273 20.5167 35.3372 20.0113C35.5343 19.1102 35.9071 18.2311 36.4994 17.396C37.2234 16.3189 37.991 15.8794 38.7804 16.0331C39.3068 16.1432 39.7454 16.6047 40.0744 17.4617C40.3376 18.1431 40.4692 18.8246 40.4692 19.4619C40.4692 20.0331 40.4252 20.5826 40.3156 21.0881Z" fill="#7F54B3"/>
</g>
<defs>
<filter id="filter0_ddii_303_260" x="0" y="0" width="68.6471" height="47" filterUnits="userSpaceOnUse" color-interpolation-filters="sRGB">
<feFlood flood-opacity="0" result="BackgroundImageFix"/>
<feColorMatrix in="SourceAlpha" type="matrix" values="0 0 0 0 0 0 0 0 0 0 0 0 0 0 0 0 0 0 127 0" result="hardAlpha"/>
<feOffset dx="3" dy="3"/>
<feGaussianBlur stdDeviation="2.5"/>
<feComposite in2="hardAlpha" operator="out"/>
<feColorMatrix type="matrix" values="0 0 0 0 0 0 0 0 0 0 0 0 0 0 0 0 0 0 0.25 0"/>
<feBlend mode="normal" in2="BackgroundImageFix" result="effect1_dropShadow_303_260"/>
<feColorMatrix in="SourceAlpha" type="matrix" values="0 0 0 0 0 0 0 0 0 0 0 0 0 0 0 0 0 0 127 0" result="hardAlpha"/>
<feOffset dx="-3" dy="-3"/>
<feGaussianBlur stdDeviation="2"/>
<feComposite in2="hardAlpha" operator="out"/>
<feColorMatrix type="matrix" values="0 0 0 0 1 0 0 0 0 1 0 0 0 0 1 0 0 0 0.9 0"/>
<feBlend mode="normal" in2="effect1_dropShadow_303_260" result="effect2_dropShadow_303_260"/>
<feBlend mode="normal" in="SourceGraphic" in2="effect2_dropShadow_303_260" result="shape"/>
<feColorMatrix in="SourceAlpha" type="matrix" values="0 0 0 0 0 0 0 0 0 0 0 0 0 0 0 0 0 0 127 0" result="hardAlpha"/>
<feOffset dx="3" dy="3"/>
<feGaussianBlur stdDeviation="1.5"/>
<feComposite in2="hardAlpha" operator="arithmetic" k2="-1" k3="1"/>
<feColorMatrix type="matrix" values="0 0 0 0 1 0 0 0 0 1 0 0 0 0 1 0 0 0 0.2 0"/>
<feBlend mode="normal" in2="shape" result="effect3_innerShadow_303_260"/>
<feColorMatrix in="SourceAlpha" type="matrix" values="0 0 0 0 0 0 0 0 0 0 0 0 0 0 0 0 0 0 127 0" result="hardAlpha"/>
<feOffset dx="-3" dy="-3"/>
<feGaussianBlur stdDeviation="1.5"/>
<feComposite in2="hardAlpha" operator="arithmetic" k2="-1" k3="1"/>
<feColorMatrix type="matrix" values="0 0 0 0 0 0 0 0 0 0 0 0 0 0 0 0 0 0 0.2 0"/>
<feBlend mode="normal" in2="effect3_innerShadow_303_260" result="effect4_innerShadow_303_260"/>
</filter>
</defs>
</svg>
