<svg width="55" height="55" viewBox="0 0 55 55" fill="none" xmlns="http://www.w3.org/2000/svg">
<g filter="url(#filter0_ddii_303_192)">
<path d="M27.0075 7C38.0503 7.00375 47 15.9572 47 27V27.0075C46.9963 38.0522 38.0391 47.0037 26.9927 47C15.9478 46.9963 6.99625 38.0373 7 26.9927C7.00375 15.9478 15.9609 6.99625 27.0075 7ZM26.9053 12.1438C26.3561 14.2222 24.5042 16.0684 22.565 18.0077C19.6647 20.9155 16.3672 24.2055 16.3672 29.147C16.3747 34.9587 21.0805 39.6703 26.8923 39.6852C32.7153 39.6852 37.438 34.968 37.4434 29.147C37.4434 24.2055 34.1553 20.9173 31.2456 18.0077L30.9858 17.7477C29.1431 15.9028 27.4283 14.1308 26.9053 12.1438ZM27.0483 27.9241C28.2581 29.2138 29.0264 30.1027 29.8223 31.0731C29.8817 31.1455 29.9356 31.2234 29.9839 31.3069C30.9581 32.7116 30.8262 34.6044 29.6666 35.8587C28.3009 37.3377 25.9963 37.4286 24.5172 36.063C23.0383 34.6972 22.9473 32.3925 24.313 30.9136C25.0888 29.9969 26.0258 29.095 27.0483 27.9241ZM22.2328 23.0883L22.7413 23.5689L25.1017 25.983C25.1908 26.0852 25.1908 26.2355 25.1017 26.3377L22.6338 29.0653L21.7708 30.1156C21.4426 30.5153 21.1641 30.9534 20.9414 31.4202C20.9098 31.4981 20.843 31.5556 20.7614 31.5741H20.6742C20.4348 31.5538 20.1602 31.112 20.1602 31.112L20.1164 31.0459C20.0593 30.957 20.007 30.8651 19.9597 30.7706L19.9133 30.6705C19.5764 29.5716 19.5488 28.4012 19.8336 27.2877L19.8655 27.1719C20.1279 26.2464 20.5416 25.3707 21.0898 24.5803C21.4422 24.0617 21.8238 23.5636 22.2328 23.0883ZM26.9203 18.208C27.5492 18.9225 28.2581 19.6388 28.9261 20.3067L28.9409 20.3531C30.3379 21.6545 31.6011 23.0924 32.7116 24.6453C33.6547 25.9704 34.1701 27.5521 34.1887 29.1784C34.1887 29.8812 34.0829 30.58 33.875 31.2512L33.8647 31.2789C33.8373 31.3462 33.7932 31.4054 33.7366 31.4509C33.6799 31.4964 33.6126 31.5267 33.5409 31.5389H33.4742C33.33 31.4933 33.2082 31.3953 33.1327 31.2642L33.0208 31.0963C32.4189 30.2037 31.7404 29.3652 30.9931 28.5903L30.0302 27.5734L26.8198 24.2297C26.278 23.7081 25.3094 22.7728 24.9011 22.2644C24.8881 22.2364 24.8726 22.2098 24.8547 22.1847C24.7435 22.0325 24.6576 21.8632 24.6005 21.6836V21.5834C24.5451 21.257 24.589 20.9214 24.7267 20.6203C24.8159 20.4288 24.9384 20.2548 25.0886 20.1063C25.7102 19.4847 26.3319 18.8761 26.92 18.208H26.9203Z" fill="#009DDE"/>
</g>
<defs>
<filter id="filter0_ddii_303_192" x="0" y="0" width="55" height="55" filterUnits="userSpaceOnUse" color-interpolation-filters="sRGB">
<feFlood flood-opacity="0" result="BackgroundImageFix"/>
<feColorMatrix in="SourceAlpha" type="matrix" values="0 0 0 0 0 0 0 0 0 0 0 0 0 0 0 0 0 0 127 0" result="hardAlpha"/>
<feOffset dx="3" dy="3"/>
<feGaussianBlur stdDeviation="2.5"/>
<feComposite in2="hardAlpha" operator="out"/>
<feColorMatrix type="matrix" values="0 0 0 0 0 0 0 0 0 0 0 0 0 0 0 0 0 0 0.25 0"/>
<feBlend mode="normal" in2="BackgroundImageFix" result="effect1_dropShadow_303_192"/>
<feColorMatrix in="SourceAlpha" type="matrix" values="0 0 0 0 0 0 0 0 0 0 0 0 0 0 0 0 0 0 127 0" result="hardAlpha"/>
<feOffset dx="-3" dy="-3"/>
<feGaussianBlur stdDeviation="2"/>
<feComposite in2="hardAlpha" operator="out"/>
<feColorMatrix type="matrix" values="0 0 0 0 1 0 0 0 0 1 0 0 0 0 1 0 0 0 0.9 0"/>
<feBlend mode="normal" in2="effect1_dropShadow_303_192" result="effect2_dropShadow_303_192"/>
<feBlend mode="normal" in="SourceGraphic" in2="effect2_dropShadow_303_192" result="shape"/>
<feColorMatrix in="SourceAlpha" type="matrix" values="0 0 0 0 0 0 0 0 0 0 0 0 0 0 0 0 0 0 127 0" result="hardAlpha"/>
<feOffset dx="3" dy="3"/>
<feGaussianBlur stdDeviation="1.5"/>
<feComposite in2="hardAlpha" operator="arithmetic" k2="-1" k3="1"/>
<feColorMatrix type="matrix" values="0 0 0 0 1 0 0 0 0 1 0 0 0 0 1 0 0 0 0.2 0"/>
<feBlend mode="normal" in2="shape" result="effect3_innerShadow_303_192"/>
<feColorMatrix in="SourceAlpha" type="matrix" values="0 0 0 0 0 0 0 0 0 0 0 0 0 0 0 0 0 0 127 0" result="hardAlpha"/>
<feOffset dx="-3" dy="-3"/>
<feGaussianBlur stdDeviation="1.5"/>
<feComposite in2="hardAlpha" operator="arithmetic" k2="-1" k3="1"/>
<feColorMatrix type="matrix" values="0 0 0 0 0 0 0 0 0 0 0 0 0 0 0 0 0 0 0.2 0"/>
<feBlend mode="normal" in2="effect3_innerShadow_303_192" result="effect4_innerShadow_303_192"/>
</filter>
</defs>
</svg>
