<svg width="59" height="55" viewBox="0 0 59 55" fill="none" xmlns="http://www.w3.org/2000/svg">
<g filter="url(#filter0_ddii_303_259)">
<path d="M28.0812 7C16.4371 7 7 16.4408 7 28.0812C7 30.3757 7.36661 32.5863 8.04695 34.6419L8.05059 34.6292C8.2907 33.52 8.61384 32.4305 9.01729 31.3698L9.03735 31.315C9.19239 30.9101 9.36384 30.5089 9.54258 30.1112L9.69579 29.7811C9.84171 29.4692 9.99675 29.161 10.1573 28.8564C10.2229 28.7323 10.2849 28.6083 10.3542 28.4861C10.3907 28.4168 10.4345 28.353 10.471 28.2855C10.6424 27.9827 10.8175 27.6799 10.9999 27.3863L11.1367 27.1783C11.3647 26.8227 11.6036 26.4743 11.8535 26.1332L11.9174 26.042C12.18 25.69 12.4554 25.3489 12.74 25.0151L12.9224 24.7999C13.2051 24.4771 13.4969 24.1615 13.7997 23.8569L13.9802 23.68C14.3011 23.3623 14.6333 23.0563 14.9761 22.7626C16.3258 18.2392 20.4571 14.9469 25.3471 14.9469C27.3151 14.9469 29.2722 15.5124 30.9484 16.5392C32.672 17.6025 34.0677 19.122 34.9812 20.9295L34.9939 20.9568L35.0669 21.0918V21.0973L35.0742 21.1009C36.0971 21.7326 37.0545 22.4646 37.9323 23.286C38.0053 23.3535 38.0801 23.4155 38.1512 23.4848C38.1549 23.4848 38.1621 23.494 38.164 23.4958L38.1603 23.4848L38.1585 23.4775V23.4721L38.2351 23.3189C38.9227 18.9706 40.8433 15.837 43.105 15.837C44.8086 15.837 46.3188 17.6154 47.2564 20.3531L47.2655 20.3823L47.2673 20.386C47.5318 20.6741 47.7908 20.9897 48.0406 21.3362L48.0534 21.3545L48.0917 21.4767L48.0552 21.3344C45.2427 13.0008 37.3614 7.00365 28.0794 7.00365L28.0812 7ZM25.1063 15.1038C20.8365 15.1822 16.7399 18.1224 15.3427 22.1953L15.3208 22.2573C16.0764 21.6512 16.8783 21.1054 17.7193 20.6249C22.8373 17.6044 29.5367 17.6227 34.6419 20.6541C33.0095 17.6391 29.8431 15.5124 26.4342 15.1749C25.9938 15.1198 25.5501 15.0961 25.1063 15.1038ZM43.043 16.0158C42.8012 16.0216 42.5616 16.0628 42.3317 16.138C40.0244 17.163 39.1963 19.919 38.6273 22.1625L38.5981 22.2938C39.2638 21.163 40.0718 20.0777 41.1443 19.2989C42.6673 18.0458 44.9837 18.1042 46.4629 19.3955C47.0247 19.9902 46.7201 19.4101 46.5195 18.9943C45.8957 17.6263 44.6499 15.9793 43.043 16.0139V16.0158ZM29.5258 20.2802L27.5741 26.2445L27.5705 26.2536L27.5595 26.2572L19.3554 28.2855H19.339L27.4665 30.2681C27.658 30.4687 27.8806 30.642 28.1231 30.7788H28.1268C28.2034 30.8226 28.2818 30.8609 28.3621 30.8974L28.3803 30.9065C28.4551 30.9393 28.5317 30.9667 28.6101 30.9922L28.6484 31.0068C28.7214 31.0305 28.7944 31.0487 28.8673 31.0652L28.9275 31.0798C29.1185 31.1182 29.3127 31.1384 29.5075 31.1399C30.0644 31.1415 30.6093 30.9781 31.0735 30.6704C31.5377 30.3627 31.9003 29.9244 32.1158 29.4108C32.2617 29.0716 32.3401 28.6995 32.3401 28.3092V28.2891L32.3383 28.2672C32.3368 28.1697 32.3307 28.0723 32.32 27.9754L32.3182 27.9718C32.3072 27.878 32.2914 27.7848 32.2708 27.6927L32.269 27.6854C32.2284 27.5049 32.1697 27.3289 32.0939 27.1601V27.1546C31.9438 26.8175 31.7281 26.5136 31.4591 26.2609V26.2554L29.5258 20.2802ZM35.2675 21.422C35.3551 23.2605 35.3332 25.1538 35.0851 26.9978C34.7751 30.6785 32.9146 33.9251 31.4883 37.2411L31.4336 37.387L31.3698 37.5438C34.1239 34.7678 37.1517 31.999 38.609 28.2745C39.3076 27.1145 38.8242 25.8268 38.3993 24.6704C38.0892 23.0708 36.4495 22.3394 35.2675 21.422ZM46.5249 22.4653L45.4525 27.368C45.4168 27.4879 45.3882 27.6097 45.3667 27.7328C45.3631 27.7693 45.354 27.8058 45.3485 27.8423C45.3302 27.9765 45.3205 28.1117 45.3193 28.2472L45.3157 28.3037H45.3211C45.3211 29.4491 45.8629 30.3757 46.5304 30.3775C46.6459 30.3762 46.7595 30.3481 46.8624 30.2955L46.9116 30.2681C46.9564 30.2429 46.9991 30.2143 47.0393 30.1824C47.063 30.1641 47.0831 30.1423 47.105 30.1222C47.2026 30.0326 47.2868 29.9294 47.3548 29.8158L47.4096 29.7173C47.4444 29.6532 47.476 29.5874 47.5044 29.5203L47.5354 29.4473C47.5719 29.3507 47.6047 29.2503 47.6321 29.1446L47.6357 29.1409L47.6376 29.1354L48.3744 28.3128L47.6321 27.4811V27.4829L47.5956 27.368L46.5249 22.4653ZM38.5342 24.0266C39.7928 27.1564 40.0846 30.7879 38.7002 33.9306C37.8065 36.4257 35.8056 38.423 35.2821 41.0531C36.6136 41.2629 37.9597 41.3741 39.3131 41.3924C43.2637 41.4453 47.2144 40.6263 50.7747 38.9027C47.0539 33.6698 43.2583 28.4059 38.5342 24.0266ZM29.5093 25.8085C29.7914 25.8085 30.0618 25.9206 30.2612 26.12C30.4607 26.3194 30.5727 26.5899 30.5727 26.8719C30.5727 27.1539 30.4607 27.4244 30.2612 27.6238C30.0618 27.8232 29.7914 27.9353 29.5093 27.9353C29.2273 27.9353 28.9568 27.8232 28.7574 27.6238C28.558 27.4244 28.446 27.1539 28.446 26.8719C28.446 26.5899 28.558 26.3194 28.7574 26.12C28.9568 25.9206 29.2273 25.8085 29.5093 25.8085ZM46.5669 26.4834C46.8186 26.4834 47.0211 26.83 47.0211 27.2604C47.0211 27.6909 46.8186 28.0374 46.5669 28.0374C46.317 28.0374 46.1146 27.6909 46.1146 27.2604C46.1146 26.8318 46.3152 26.4834 46.5669 26.4834ZM39.1909 26.819C39.1661 26.9963 39.1357 27.1727 39.0997 27.348L39.0887 27.3899C39.0705 27.4811 39.0486 27.5614 39.0285 27.6234C38.153 30.2079 36.703 32.2197 34.724 34.3665C34.4559 34.6583 34.175 34.9502 33.8868 35.2493C33.1703 35.9924 32.443 36.7251 31.7054 37.4472C31.5011 37.6478 31.233 37.9232 30.9302 38.2424C30.7423 38.7659 30.5289 39.355 30.3502 39.9752C30.2699 39.946 30.1933 39.9186 30.1112 39.8858C26.2664 38.3993 23.6928 36.413 23.6928 36.413C23.6928 36.413 25.6736 38.992 29.0096 41.4106C29.3324 41.6459 29.6498 41.8483 29.9617 42.0289C29.8249 44.2067 30.7861 46.297 35.1235 46.9207C35.8664 47.0213 36.6191 47.0262 37.3633 46.9353L37.345 46.8824C37.3431 46.8762 37.3407 46.8701 37.3377 46.8642C37.3377 46.8642 37.0331 46.6216 36.6464 46.1766C36.2168 45.6836 35.8582 45.1329 35.5813 44.5405C35.3501 44.0404 35.1869 43.5116 35.0961 42.9683C35.0015 42.3814 34.9978 41.7834 35.0851 41.1954C35.1162 40.9765 35.1581 40.7558 35.2165 40.5278C35.3861 39.8457 35.6816 39.1197 36.1412 38.3537L36.1449 38.3482L36.5844 37.6113C38.5962 34.2188 39.8621 31.6379 39.3313 27.6872C39.2917 27.3966 39.2443 27.1071 39.189 26.819H39.1909ZM47.7288 28.2399L47.7342 28.3055V28.3238C47.7342 28.3475 47.7288 28.3694 47.7288 28.3931C47.7288 28.3675 47.7342 28.342 47.7342 28.3147C47.7342 28.2891 47.7306 28.2672 47.7288 28.2417V28.2399ZM47.7069 28.7415V28.7433L47.7032 28.7615L47.6996 28.7871L47.7069 28.7415ZM50.1747 39.5538C45.5181 41.6295 40.2524 42.1803 35.2329 41.3905C34.9775 43.4115 35.9333 45.4361 37.4472 46.7347L37.469 46.7529C42.3992 45.9632 46.5432 42.7986 50.1747 39.5556V39.5538Z" fill="#DF0067"/>
</g>
<defs>
<filter id="filter0_ddii_303_259" x="0" y="0" width="58.7747" height="55" filterUnits="userSpaceOnUse" color-interpolation-filters="sRGB">
<feFlood flood-opacity="0" result="BackgroundImageFix"/>
<feColorMatrix in="SourceAlpha" type="matrix" values="0 0 0 0 0 0 0 0 0 0 0 0 0 0 0 0 0 0 127 0" result="hardAlpha"/>
<feOffset dx="3" dy="3"/>
<feGaussianBlur stdDeviation="2.5"/>
<feComposite in2="hardAlpha" operator="out"/>
<feColorMatrix type="matrix" values="0 0 0 0 0 0 0 0 0 0 0 0 0 0 0 0 0 0 0.25 0"/>
<feBlend mode="normal" in2="BackgroundImageFix" result="effect1_dropShadow_303_259"/>
<feColorMatrix in="SourceAlpha" type="matrix" values="0 0 0 0 0 0 0 0 0 0 0 0 0 0 0 0 0 0 127 0" result="hardAlpha"/>
<feOffset dx="-3" dy="-3"/>
<feGaussianBlur stdDeviation="2"/>
<feComposite in2="hardAlpha" operator="out"/>
<feColorMatrix type="matrix" values="0 0 0 0 1 0 0 0 0 1 0 0 0 0 1 0 0 0 0.9 0"/>
<feBlend mode="normal" in2="effect1_dropShadow_303_259" result="effect2_dropShadow_303_259"/>
<feBlend mode="normal" in="SourceGraphic" in2="effect2_dropShadow_303_259" result="shape"/>
<feColorMatrix in="SourceAlpha" type="matrix" values="0 0 0 0 0 0 0 0 0 0 0 0 0 0 0 0 0 0 127 0" result="hardAlpha"/>
<feOffset dx="3" dy="3"/>
<feGaussianBlur stdDeviation="1.5"/>
<feComposite in2="hardAlpha" operator="arithmetic" k2="-1" k3="1"/>
<feColorMatrix type="matrix" values="0 0 0 0 1 0 0 0 0 1 0 0 0 0 1 0 0 0 0.2 0"/>
<feBlend mode="normal" in2="shape" result="effect3_innerShadow_303_259"/>
<feColorMatrix in="SourceAlpha" type="matrix" values="0 0 0 0 0 0 0 0 0 0 0 0 0 0 0 0 0 0 127 0" result="hardAlpha"/>
<feOffset dx="-3" dy="-3"/>
<feGaussianBlur stdDeviation="1.5"/>
<feComposite in2="hardAlpha" operator="arithmetic" k2="-1" k3="1"/>
<feColorMatrix type="matrix" values="0 0 0 0 0 0 0 0 0 0 0 0 0 0 0 0 0 0 0.2 0"/>
<feBlend mode="normal" in2="effect3_innerShadow_303_259" result="effect4_innerShadow_303_259"/>
</filter>
</defs>
</svg>
