<svg width="36" height="35" viewBox="0 0 36 35" fill="none" xmlns="http://www.w3.org/2000/svg">
<g filter="url(#filter0_dd_258_216)">
<path d="M25.8034 14.4687C23.41 10.9999 18.5235 9.96863 14.7339 12.1249C11.0441 14.2812 9.84739 18.9687 12.2408 22.4375L12.4402 22.7187L11.6424 25.5312L14.6342 24.7812L14.9334 24.9687C16.2298 25.625 17.626 26 19.0221 26C20.518 26 22.0139 25.625 23.3103 24.875C27.0001 22.625 28.0971 18.0312 25.8034 14.4687ZM23.7092 21.6875C23.3103 22.25 22.8117 22.625 22.1136 22.7187C21.7147 22.7187 21.2161 22.9062 19.2216 22.1562C17.5262 21.4062 16.1301 20.1875 15.1328 18.7812C14.5345 18.1249 14.2353 17.2812 14.1356 16.4374C14.1356 15.6874 14.4347 15.0312 14.9334 14.5624C15.1328 14.3749 15.3323 14.2812 15.5317 14.2812H16.0304C16.2298 14.2812 16.4293 14.2812 16.529 14.6562C16.7284 15.1249 17.2271 16.2499 17.2271 16.3437C17.3268 16.4374 17.3268 16.6249 17.2271 16.7187C17.3268 16.9062 17.2271 17.0937 17.1273 17.1874C17.0276 17.2812 16.9279 17.4687 16.8282 17.5624C16.6287 17.6562 16.529 17.8437 16.6287 18.0312C17.0276 18.5937 17.5262 19.1562 18.0249 19.625C18.6232 20.0937 19.2216 20.4687 19.9196 20.75C20.1191 20.8437 20.3185 20.8437 20.4183 20.6562C20.518 20.4687 21.0166 20 21.2161 19.8125C21.4155 19.625 21.5152 19.625 21.7147 19.7187L23.3103 20.4687C23.5097 20.5625 23.7092 20.6562 23.8089 20.75C23.9086 21.0312 23.9086 21.4062 23.7092 21.6875Z" fill="#00ABFF"/>
</g>
<defs>
<filter id="filter0_dd_258_216" x="0" y="0" width="36" height="35" filterUnits="userSpaceOnUse" color-interpolation-filters="sRGB">
<feFlood flood-opacity="0" result="BackgroundImageFix"/>
<feColorMatrix in="SourceAlpha" type="matrix" values="0 0 0 0 0 0 0 0 0 0 0 0 0 0 0 0 0 0 127 0" result="hardAlpha"/>
<feOffset dx="3" dy="3"/>
<feGaussianBlur stdDeviation="3"/>
<feComposite in2="hardAlpha" operator="out"/>
<feColorMatrix type="matrix" values="0 0 0 0 0 0 0 0 0 0 0 0 0 0 0 0 0 0 0.2 0"/>
<feBlend mode="normal" in2="BackgroundImageFix" result="effect1_dropShadow_258_216"/>
<feColorMatrix in="SourceAlpha" type="matrix" values="0 0 0 0 0 0 0 0 0 0 0 0 0 0 0 0 0 0 127 0" result="hardAlpha"/>
<feOffset dx="-4" dy="-4"/>
<feGaussianBlur stdDeviation="3.5"/>
<feComposite in2="hardAlpha" operator="out"/>
<feColorMatrix type="matrix" values="0 0 0 0 1 0 0 0 0 1 0 0 0 0 1 0 0 0 0.7 0"/>
<feBlend mode="normal" in2="effect1_dropShadow_258_216" result="effect2_dropShadow_258_216"/>
<feBlend mode="normal" in="SourceGraphic" in2="effect2_dropShadow_258_216" result="shape"/>
</filter>
</defs>
</svg>
